<svg width="284" height="284" viewBox="0 0 284 284" fill="none" xmlns="http://www.w3.org/2000/svg">
<g clip-path="url(#clip0_324_5631)">
<path d="M283.46 169.755V113.705V113.535L283.403 113.384L261.955 61.5959L261.889 61.4447L261.766 61.3313L222.138 21.6941L222.015 21.5808L221.864 21.5146L170.076 0.0661407L169.925 0H169.755H113.705H113.545L113.384 0.0661407L61.6053 21.5146L61.4541 21.5808L61.3313 21.6941L21.7036 61.3313L21.5808 61.4447L21.5146 61.5959L0.0661476 113.384L0 113.535V113.705V169.755V169.925L0.0661476 170.076L21.5146 221.864L21.5808 222.015L21.7036 222.129L61.3313 261.766L61.4541 261.879L61.6053 261.945L113.384 283.394L113.545 283.46H113.705H169.755H169.925L170.076 283.394L221.864 261.945L222.015 261.879L222.138 261.766L261.766 222.129L261.889 222.015L261.955 221.864L283.403 170.076L283.46 169.925V169.755Z" fill="white"/>
<path d="M222.025 45.8922H61.4541V76.7231H222.025V45.8922Z" fill="black"/>
<path d="M61.4922 228.97V215.534C61.4922 215.241 61.5961 215.118 61.8701 215.118H63.552V228.979C63.552 229.272 63.4481 229.395 63.1552 229.395H61.8701C61.5961 229.395 61.4922 229.272 61.4922 228.979V228.97ZM64.563 215.108H69.5802C69.8543 215.108 69.9771 215.212 69.9771 215.505V216.45C69.9771 216.743 69.8543 216.847 69.5802 216.847H64.563V215.108ZM64.563 222.885V221.118H69.2023C69.4952 221.118 69.5991 221.222 69.5991 221.515V222.478C69.5991 222.752 69.4952 222.875 69.2023 222.875H64.563V222.885Z" fill="black"/>
<path d="M76.6943 215.534C76.6943 215.241 76.7983 215.118 77.0723 215.118H78.7541V228.979C78.7541 229.272 78.6502 229.395 78.3573 229.395H77.0723C76.7983 229.395 76.6943 229.272 76.6943 228.979V215.543V215.534ZM84.5084 229.385C84.2344 229.385 84.1683 229.177 84.0643 228.97L81.7116 223.744H79.7557V222.006H81.3337C83.2234 222.006 84.0643 221.335 84.0643 220.182V218.689C84.0643 217.556 83.2234 216.866 81.3337 216.866H79.7557V215.127H81.3337C84.9431 215.127 86.0958 216.639 86.0958 218.359V220.541C86.0958 221.798 85.4438 222.951 83.6391 223.48L86.1619 228.979C86.2659 229.234 86.0769 229.395 85.8029 229.395H84.4989L84.5084 229.385Z" fill="black"/>
<path d="M93.3711 228.97V215.534C93.3711 215.241 93.4751 215.118 93.7491 215.118H95.4309V229.395H93.7491C93.4751 229.395 93.3711 229.272 93.3711 228.979V228.97ZM96.4419 215.108H100.939C101.213 215.108 101.336 215.212 101.336 215.505V216.45C101.336 216.743 101.213 216.847 100.939 216.847H96.4419V215.108ZM96.4419 221.099H100.562C100.854 221.099 100.977 221.203 100.977 221.496V222.393C100.977 222.667 100.854 222.79 100.562 222.79H96.4419V221.089V221.099ZM96.4419 227.647H101.166C101.459 227.647 101.563 227.732 101.563 228.025V228.988C101.563 229.281 101.459 229.385 101.166 229.385H96.4419V227.647Z" fill="black"/>
<path d="M108.471 215.534C108.471 215.241 108.575 215.118 108.849 215.118H110.531V229.395H108.811C108.556 229.395 108.471 229.244 108.471 228.979V215.543V215.534ZM111.542 227.647H113.242C115.132 227.647 115.973 226.957 115.973 225.823V218.68C115.973 217.546 115.132 216.856 113.242 216.856H111.542V215.118H113.242C116.852 215.118 118.033 216.63 118.033 218.349V226.163C118.033 227.883 116.861 229.395 113.242 229.395H111.542V227.656V227.647Z" fill="black"/>
<path d="M125.44 215.534C125.44 215.241 125.544 215.118 125.818 215.118H127.5V228.979C127.5 229.272 127.396 229.395 127.103 229.395H125.818C125.544 229.395 125.44 229.272 125.44 228.979V215.543V215.534ZM133.245 229.385C132.971 229.385 132.905 229.177 132.801 228.97L130.448 223.744H128.492V222.006H130.07C131.96 222.006 132.801 221.335 132.801 220.182V218.689C132.801 217.556 131.96 216.866 130.07 216.866H128.492V215.127H130.07C133.68 215.127 134.832 216.639 134.832 218.359V220.541C134.832 221.798 134.18 222.951 132.376 223.48L134.899 228.979C135.002 229.234 134.814 229.395 134.54 229.395H133.236L133.245 229.385Z" fill="black"/>
<path d="M142.107 215.534C142.107 215.241 142.211 215.118 142.485 215.118H143.77C144.063 215.118 144.167 215.241 144.167 215.534V228.97C144.167 229.262 144.063 229.385 143.77 229.385H142.485C142.211 229.385 142.107 229.262 142.107 228.97V215.534Z" fill="black"/>
<path d="M151.793 215.515C151.793 215.241 151.897 215.118 152.171 215.118H153.456C153.749 215.118 153.853 215.241 153.853 215.515V228.998C153.853 229.272 153.749 229.395 153.456 229.395H152.171C151.897 229.395 151.793 229.272 151.793 228.998V215.515ZM154.816 221.515L158.747 215.505C158.898 215.297 159.125 215.108 159.399 215.108H160.788C161.062 215.108 161.128 215.297 160.977 215.505L156.565 222.138L161.544 228.988C161.695 229.177 161.629 229.385 161.355 229.385H159.692C159.399 229.385 159.229 229.196 159.087 228.988L154.826 223.045V221.515H154.816Z" fill="black"/>
<path d="M167.166 225.105C167.166 224.812 167.27 224.689 167.544 224.689H168.782C169.075 224.689 169.16 224.812 169.16 225.105V226.069C169.16 227.136 169.849 227.751 171.39 227.855V229.536C168.177 229.414 167.166 227.959 167.166 226.324V225.105ZM172.391 227.855C173.884 227.732 174.555 227.118 174.555 226.069V225.039C174.555 224.113 173.591 223.612 172.788 223.319L169.235 221.978C168.29 221.618 167.364 220.589 167.364 219.332V218.179C167.364 216.563 168.205 215.108 171.371 214.967V216.667C169.925 216.771 169.358 217.423 169.358 218.434V218.878C169.358 219.7 169.991 220.116 170.426 220.286L174.271 221.732C175.509 222.195 176.577 223.121 176.577 224.585V226.333C176.577 227.968 175.566 229.423 172.382 229.546V227.864L172.391 227.855ZM174.451 219.105V218.434C174.451 217.385 173.846 216.752 172.391 216.667V214.967C175.519 215.071 176.464 216.545 176.464 218.179V219.105C176.464 219.379 176.341 219.502 176.067 219.502H174.829C174.555 219.502 174.451 219.379 174.451 219.105Z" fill="black"/>
<path d="M182.198 216.46V215.515C182.198 215.222 182.321 215.118 182.595 215.118H191.373C191.666 215.118 191.77 215.222 191.77 215.515V216.46C191.77 216.752 191.666 216.856 191.373 216.856H182.595C182.321 216.856 182.198 216.752 182.198 216.46ZM185.959 217.801H188.019V228.97C188.019 229.262 187.934 229.385 187.641 229.385H186.356C186.082 229.385 185.959 229.262 185.959 228.97V217.801Z" fill="black"/>
<path d="M199.697 215.515C199.782 215.241 199.924 215.118 200.198 215.118H201.502C201.776 215.118 201.917 215.241 202.002 215.515L206.075 228.998C206.16 229.253 206.056 229.395 205.763 229.395H204.44C204.166 229.395 204.043 229.244 203.977 228.998L202.995 225.748H199.593L200.056 224.113H202.551L201.379 220.296C201.19 219.559 200.812 217.187 200.812 217.187C200.774 217.376 200.472 219.389 200.226 220.248L197.599 229.007C197.533 229.262 197.41 229.404 197.136 229.404H195.918C195.644 229.404 195.54 229.253 195.625 229.007L199.697 215.524V215.515Z" fill="black"/>
<path d="M212.416 215.534C212.416 215.241 212.52 215.118 212.794 215.118H214.476V229.395H212.756C212.501 229.395 212.416 229.244 212.416 228.979V215.543V215.534ZM215.487 227.647H217.188C219.077 227.647 219.918 226.957 219.918 225.823V218.68C219.918 217.546 219.077 216.856 217.188 216.856H215.487V215.118H217.188C220.797 215.118 221.978 216.63 221.978 218.349V226.163C221.978 227.883 220.806 229.395 217.188 229.395H215.487V227.656V227.647Z" fill="black"/>
<path d="M71.3564 54.2732C71.3564 53.9519 71.4698 53.8102 71.7722 53.8102H73.6146V68.9847C73.6146 69.306 73.5013 69.4477 73.18 69.4477H71.7816C71.4793 69.4477 71.3659 69.306 71.3659 68.9847V54.2637L71.3564 54.2732ZM74.7107 61.7187H76.4398C78.5091 61.7187 79.4256 60.9628 79.4256 59.7156V57.7125C79.4256 56.4747 78.5091 55.7094 76.4398 55.7094H74.7107V53.8007H76.4398C80.3988 53.8007 81.6555 55.4542 81.6555 57.344V60.0841C81.6555 61.9738 80.3894 63.6273 76.4398 63.6273H74.7107V61.7187Z" fill="white"/>
<path d="M92.5879 54.2448C92.6824 53.9425 92.843 53.8102 93.1359 53.8102H94.5627C94.865 53.8102 95.0256 53.9519 95.1107 54.2448L99.5705 69.0036C99.665 69.2776 99.5516 69.4383 99.2209 69.4383H97.7752C97.4728 69.4383 97.3406 69.2776 97.265 69.0036L96.1878 65.4415H92.4651L92.9753 63.6462H95.7154L94.4304 59.4605C94.2225 58.6573 93.8068 56.059 93.8068 56.059C93.7596 56.2668 93.4383 58.4684 93.1642 59.4132L90.2919 69.0036C90.2257 69.2776 90.084 69.4383 89.7817 69.4383H88.4494C88.147 69.4383 88.0337 69.2776 88.1281 69.0036L92.5879 54.2448Z" fill="white"/>
<path d="M107.903 54.2732C107.903 53.9519 108.017 53.8102 108.319 53.8102H110.162V68.9847C110.162 69.306 110.048 69.4477 109.727 69.4477H108.329C108.026 69.4477 107.913 69.306 107.913 68.9847V54.2637L107.903 54.2732ZM116.454 69.4477C116.152 69.4477 116.086 69.2209 115.972 68.9847L113.393 63.2588H111.258V61.3502H112.987C115.056 61.3502 115.972 60.6132 115.972 59.3471V57.7125C115.972 56.4747 115.056 55.7094 112.987 55.7094H111.258V53.8007H112.987C116.946 53.8007 118.202 55.4542 118.202 57.344V59.7345C118.202 61.114 117.494 62.3801 115.509 62.9565L118.268 68.9847C118.382 69.2587 118.174 69.4477 117.881 69.4477H116.454Z" fill="white"/>
<path d="M130.581 54.2448C130.676 53.9425 130.836 53.8102 131.129 53.8102H132.556C132.858 53.8102 133.019 53.9519 133.104 54.2448L137.564 69.0036C137.658 69.2776 137.545 69.4383 137.214 69.4383H135.768C135.466 69.4383 135.334 69.2776 135.258 69.0036L134.181 65.4415H130.458L130.968 63.6462H133.709L132.424 59.4605C132.216 58.6573 131.8 56.059 131.8 56.059C131.753 56.2668 131.431 58.4684 131.157 59.4132L128.285 69.0036C128.219 69.2776 128.077 69.4383 127.775 69.4383H126.443C126.14 69.4383 126.027 69.2776 126.121 69.0036L130.581 54.2448Z" fill="white"/>
<path d="M145.415 57.1644C145.415 55.3975 146.426 53.8102 149.941 53.6495V55.5582C148.306 55.6999 147.664 56.4274 147.664 57.5329V65.7155C147.664 66.8682 148.306 67.5769 149.941 67.7186V69.6083C146.426 69.4666 145.415 67.8792 145.415 66.0934V57.1739V57.1644ZM151.046 69.6083V67.7186C152.653 67.5769 153.39 66.8871 153.39 65.7438V63.5328H150.65C150.328 63.5328 150.187 63.4195 150.187 63.0982V62.04C150.187 61.7376 150.328 61.6242 150.65 61.6242H155.138C155.44 61.6242 155.572 61.7376 155.572 62.04V66.084C155.572 67.8792 154.495 69.4666 151.046 69.5989V69.6083ZM153.39 58.1754V57.5329C153.39 56.4085 152.681 55.6716 151.046 55.5582V53.6495C154.495 53.8102 155.572 55.3975 155.572 57.1644V58.1754C155.572 58.4778 155.459 58.6101 155.157 58.6101H153.796C153.494 58.6101 153.38 58.4684 153.38 58.1754H153.39Z" fill="white"/>
<path d="M164.822 54.2732C164.822 53.9519 164.936 53.8102 165.238 53.8102H167.081V68.9847C167.081 69.306 166.967 69.4477 166.646 69.4477H165.247C164.945 69.4477 164.832 69.306 164.832 68.9847V54.2637L164.822 54.2732ZM173.383 69.4477C173.08 69.4477 173.014 69.2209 172.901 68.9847L170.321 63.2588H168.186V61.3502H169.915C171.984 61.3502 172.901 60.6132 172.901 59.3471V57.7125C172.901 56.4747 171.984 55.7094 169.915 55.7094H168.186V53.8007H169.915C173.874 53.8007 175.131 55.4542 175.131 57.344V59.7345C175.131 61.114 174.422 62.3801 172.438 62.9565L175.197 68.9847C175.31 69.2587 175.102 69.4477 174.81 69.4477H173.383Z" fill="white"/>
<path d="M187.499 54.2448C187.594 53.9425 187.754 53.8102 188.047 53.8102H189.474C189.776 53.8102 189.937 53.9519 190.022 54.2448L194.482 69.0036C194.576 69.2776 194.463 69.4383 194.132 69.4383H192.686C192.384 69.4383 192.252 69.2776 192.176 69.0036L191.099 65.4415H187.376L187.886 63.6462H190.627L189.342 59.4605C189.134 58.6573 188.718 56.059 188.718 56.059C188.671 56.2668 188.349 58.4684 188.075 59.4132L185.203 69.0036C185.137 69.2776 184.995 69.4383 184.693 69.4383H183.36C183.058 69.4383 182.945 69.2776 183.039 69.0036L187.499 54.2448Z" fill="white"/>
<path d="M202.825 68.9847V54.2637C202.825 53.9425 202.939 53.8007 203.241 53.8007H205.083V68.9753C205.083 69.2965 204.97 69.4383 204.649 69.4383H203.25C202.948 69.4383 202.835 69.2965 202.835 68.9753L202.825 68.9847ZM206.18 53.8102H211.679C211.981 53.8102 212.113 53.9236 212.113 54.2448V55.2747C212.113 55.596 211.972 55.7094 211.679 55.7094H206.18V53.8007V53.8102ZM206.18 62.314V60.3864H211.263C211.584 60.3864 211.698 60.4998 211.698 60.8211V61.8793C211.698 62.1817 211.584 62.314 211.263 62.314H206.18Z" fill="white"/>
<path fill-rule="evenodd" clip-rule="evenodd" d="M29.4236 97.1378C28.7609 97.1378 28.2236 97.6751 28.2236 98.3378V107.938C28.2236 108.601 28.7609 109.138 29.4236 109.138L39.6413 109.138C39.9595 109.138 40.2648 109.264 40.4898 109.489L45.8722 114.872C46.0972 115.097 46.2236 115.402 46.2236 115.72V185.938C46.2236 186.601 46.7609 187.138 47.4236 187.138H57.0236C57.6864 187.138 58.2236 186.601 58.2236 185.938L58.2236 110.833C58.2236 110.516 58.0983 110.212 57.8749 109.987L45.1339 97.1629C45.1201 97.1491 45.0977 97.149 45.0839 97.1629L45.0663 97.1805C45.0505 97.1962 45.0236 97.1851 45.0236 97.1628V97.1628C45.0236 97.149 45.0124 97.1378 44.9987 97.1378H29.4236Z" fill="black"/>
<path fill-rule="evenodd" clip-rule="evenodd" d="M76.3897 107.938C77.0065 107.938 77.5164 107.468 77.6326 106.862C78.6958 101.323 83.5677 97.1378 89.4172 97.1378H112.217C118.43 97.1378 123.54 101.859 124.155 107.909C124.157 107.925 124.17 107.938 124.186 107.938V107.938C124.204 107.938 124.218 107.952 124.218 107.969V173.938C124.218 174.601 123.681 175.138 123.018 175.138H113.418C112.755 175.138 112.218 174.601 112.218 173.938V110.338C112.218 109.675 111.681 109.138 111.018 109.138H79.8172C79.1544 109.138 78.6172 109.675 78.6172 110.338V118.738C78.6172 119.401 78.0799 119.938 77.4172 119.938H67.8172C67.1544 119.938 66.6172 119.401 66.6172 118.738V109.138C66.6172 108.475 67.1544 107.938 67.8172 107.938H76.3897ZM156.618 176.338C156.618 175.675 156.08 175.138 155.418 175.138H124.218C123.555 175.138 123.018 175.675 123.018 176.338V185.938C123.018 186.601 123.555 187.138 124.218 187.138H155.418C156.08 187.138 156.618 186.601 156.618 185.938V176.338ZM66.6172 176.338C66.6172 175.675 67.1544 175.138 67.8172 175.138H112.217C112.88 175.138 113.417 175.675 113.417 176.338V185.938C113.417 186.601 112.88 187.138 112.217 187.138H67.8172C67.1544 187.138 66.6172 186.601 66.6172 185.938V176.338Z" fill="black"/>
<path fill-rule="evenodd" clip-rule="evenodd" d="M166.211 97.1378H237.011H243.011C249.638 97.1378 255.011 102.51 255.011 109.138V115.138V121.738V123.538V145.138C255.011 145.801 254.473 146.338 253.811 146.338H184.211C183.548 146.338 183.011 146.875 183.011 147.538V169.138C183.011 169.801 183.548 170.338 184.211 170.338H253.811C254.473 170.338 255.011 170.875 255.011 171.538V185.938C255.011 186.601 254.473 187.138 253.811 187.138H166.211C165.548 187.138 165.011 186.601 165.011 185.938V152.249C165.011 138.994 175.756 128.249 189.011 128.249H235.811C236.473 128.249 237.011 127.712 237.011 127.049V116.338C237.011 115.675 236.473 115.138 235.811 115.138H166.211C165.548 115.138 165.011 114.601 165.011 113.938V98.3378C165.011 97.6751 165.548 97.1378 166.211 97.1378ZM244.241 140.027C244.199 140.045 244.173 140.09 244.178 140.136V140.136C244.188 140.239 244.326 140.271 244.378 140.18V140.18C244.43 140.091 244.336 139.985 244.241 140.027V140.027Z" fill="black"/>
</g>
<defs>
<clipPath id="clip0_324_5631">
<rect width="283.46" height="283.46" fill="white"/>
</clipPath>
</defs>
</svg>
