<svg width="284" height="284" viewBox="0 0 284 284" fill="none" xmlns="http://www.w3.org/2000/svg">
<g clip-path="url(#clip0_324_5061)">
<path d="M283.46 169.755V113.705V113.535L283.403 113.384L261.955 61.5959L261.889 61.4447L261.766 61.3313L222.138 21.6941L222.015 21.5808L221.864 21.5146L170.076 0.0661407L169.925 0H169.755H113.705H113.545L113.384 0.0661407L61.6053 21.5146L61.4541 21.5808L61.3313 21.6941L21.7036 61.3313L21.5808 61.4447L21.5146 61.5959L0.0661476 113.384L0 113.535V113.705V169.755V169.925L0.0661476 170.076L21.5146 221.864L21.5808 222.015L21.7036 222.129L61.3313 261.766L61.4541 261.879L61.6053 261.945L113.384 283.394L113.545 283.46H113.705H169.755H169.925L170.076 283.394L221.864 261.945L222.015 261.879L222.138 261.766L261.766 222.129L261.889 222.015L261.955 221.864L283.403 170.076L283.46 169.925V169.755Z" fill="#00FF84"/>
<path d="M222.026 45.8922H61.4551V76.7232H222.026V45.8922Z" fill="black"/>
<path d="M61.4922 228.97V215.534C61.4922 215.241 61.5961 215.118 61.8701 215.118H63.552V228.979C63.552 229.272 63.4481 229.395 63.1552 229.395H61.8701C61.5961 229.395 61.4922 229.272 61.4922 228.979V228.97ZM64.563 215.108H69.5802C69.8543 215.108 69.9771 215.212 69.9771 215.505V216.45C69.9771 216.743 69.8543 216.847 69.5802 216.847H64.563V215.108ZM64.563 222.885V221.118H69.2023C69.4952 221.118 69.5991 221.222 69.5991 221.515V222.478C69.5991 222.752 69.4952 222.875 69.2023 222.875H64.563V222.885Z" fill="black"/>
<path d="M76.6953 215.534C76.6953 215.241 76.7993 215.118 77.0733 215.118H78.7551V228.979C78.7551 229.272 78.6512 229.395 78.3583 229.395H77.0733C76.7993 229.395 76.6953 229.272 76.6953 228.979V215.543V215.534ZM84.5094 229.385C84.2354 229.385 84.1693 229.177 84.0653 228.97L81.7126 223.744H79.7567V222.006H81.3346C83.2244 222.006 84.0653 221.335 84.0653 220.182V218.689C84.0653 217.556 83.2244 216.866 81.3346 216.866H79.7567V215.127H81.3346C84.944 215.127 86.0967 216.639 86.0967 218.359V220.541C86.0967 221.798 85.4448 222.951 83.6401 223.48L86.1629 228.979C86.2668 229.234 86.0779 229.395 85.8038 229.395H84.4999L84.5094 229.385Z" fill="black"/>
<path d="M93.3711 228.97V215.534C93.3711 215.241 93.4751 215.118 93.7491 215.118H95.4309V229.395H93.7491C93.4751 229.395 93.3711 229.272 93.3711 228.979V228.97ZM96.4419 215.108H100.939C101.213 215.108 101.336 215.212 101.336 215.505V216.45C101.336 216.743 101.213 216.847 100.939 216.847H96.4419V215.108ZM96.4419 221.099H100.562C100.854 221.099 100.977 221.203 100.977 221.496V222.393C100.977 222.667 100.854 222.79 100.562 222.79H96.4419V221.089V221.099ZM96.4419 227.647H101.166C101.459 227.647 101.563 227.732 101.563 228.025V228.988C101.563 229.281 101.459 229.385 101.166 229.385H96.4419V227.647Z" fill="black"/>
<path d="M108.471 215.534C108.471 215.241 108.575 215.118 108.849 215.118H110.531V229.395H108.811C108.556 229.395 108.471 229.244 108.471 228.979V215.543V215.534ZM111.542 227.647H113.242C115.132 227.647 115.973 226.957 115.973 225.823V218.68C115.973 217.546 115.132 216.856 113.242 216.856H111.542V215.118H113.242C116.852 215.118 118.033 216.63 118.033 218.349V226.163C118.033 227.883 116.861 229.395 113.242 229.395H111.542V227.656V227.647Z" fill="black"/>
<path d="M125.439 215.534C125.439 215.241 125.543 215.118 125.817 215.118H127.499V228.979C127.499 229.272 127.395 229.395 127.102 229.395H125.817C125.543 229.395 125.439 229.272 125.439 228.979V215.543V215.534ZM133.244 229.385C132.97 229.385 132.904 229.177 132.8 228.97L130.447 223.744H128.491V222.006H130.069C131.959 222.006 132.8 221.335 132.8 220.182V218.689C132.8 217.556 131.959 216.866 130.069 216.866H128.491V215.127H130.069C133.679 215.127 134.831 216.639 134.831 218.359V220.541C134.831 221.798 134.179 222.951 132.375 223.48L134.898 228.979C135.002 229.234 134.813 229.395 134.539 229.395H133.235L133.244 229.385Z" fill="black"/>
<path d="M142.107 215.534C142.107 215.241 142.211 215.118 142.485 215.118H143.77C144.063 215.118 144.167 215.241 144.167 215.534V228.97C144.167 229.262 144.063 229.385 143.77 229.385H142.485C142.211 229.385 142.107 229.262 142.107 228.97V215.534Z" fill="black"/>
<path d="M151.793 215.515C151.793 215.241 151.897 215.118 152.171 215.118H153.456C153.749 215.118 153.853 215.241 153.853 215.515V228.998C153.853 229.272 153.749 229.395 153.456 229.395H152.171C151.897 229.395 151.793 229.272 151.793 228.998V215.515ZM154.816 221.515L158.747 215.505C158.898 215.297 159.125 215.108 159.399 215.108H160.788C161.062 215.108 161.128 215.297 160.977 215.505L156.565 222.138L161.544 228.988C161.695 229.177 161.629 229.385 161.355 229.385H159.692C159.399 229.385 159.229 229.196 159.087 228.988L154.826 223.045V221.515H154.816Z" fill="black"/>
<path d="M167.166 225.105C167.166 224.812 167.27 224.689 167.544 224.689H168.782C169.075 224.689 169.16 224.812 169.16 225.105V226.069C169.16 227.136 169.849 227.751 171.39 227.855V229.536C168.177 229.414 167.166 227.958 167.166 226.324V225.105ZM172.391 227.855C173.884 227.732 174.555 227.118 174.555 226.069V225.039C174.555 224.113 173.591 223.612 172.788 223.319L169.235 221.977C168.29 221.618 167.364 220.589 167.364 219.332V218.179C167.364 216.563 168.205 215.108 171.371 214.967V216.667C169.925 216.771 169.358 217.423 169.358 218.434V218.878C169.358 219.7 169.991 220.116 170.426 220.286L174.271 221.732C175.509 222.195 176.577 223.121 176.577 224.585V226.333C176.577 227.968 175.566 229.423 172.382 229.546V227.864L172.391 227.855ZM174.451 219.105V218.434C174.451 217.385 173.846 216.752 172.391 216.667V214.967C175.519 215.07 176.464 216.544 176.464 218.179V219.105C176.464 219.379 176.341 219.502 176.067 219.502H174.829C174.555 219.502 174.451 219.379 174.451 219.105Z" fill="black"/>
<path d="M182.199 216.46V215.515C182.199 215.222 182.322 215.118 182.596 215.118H191.374C191.667 215.118 191.771 215.222 191.771 215.515V216.46C191.771 216.752 191.667 216.856 191.374 216.856H182.596C182.322 216.856 182.199 216.752 182.199 216.46ZM185.96 217.801H188.02V228.97C188.02 229.262 187.935 229.385 187.642 229.385H186.357C186.083 229.385 185.96 229.262 185.96 228.97V217.801Z" fill="black"/>
<path d="M199.697 215.515C199.782 215.241 199.924 215.118 200.198 215.118H201.502C201.776 215.118 201.917 215.241 202.002 215.515L206.075 228.998C206.16 229.253 206.056 229.395 205.763 229.395H204.44C204.166 229.395 204.043 229.244 203.977 228.998L202.995 225.748H199.593L200.056 224.113H202.551L201.379 220.296C201.19 219.559 200.812 217.187 200.812 217.187C200.774 217.376 200.472 219.389 200.226 220.248L197.599 229.007C197.533 229.262 197.41 229.404 197.136 229.404H195.918C195.644 229.404 195.54 229.253 195.625 229.007L199.697 215.524V215.515Z" fill="black"/>
<path d="M212.416 215.534C212.416 215.241 212.52 215.118 212.794 215.118H214.476V229.395H212.756C212.501 229.395 212.416 229.244 212.416 228.979V215.543V215.534ZM215.487 227.647H217.188C219.077 227.647 219.918 226.957 219.918 225.823V218.68C219.918 217.546 219.077 216.856 217.188 216.856H215.487V215.118H217.188C220.797 215.118 221.978 216.63 221.978 218.349V226.163C221.978 227.883 220.806 229.395 217.188 229.395H215.487V227.656V227.647Z" fill="black"/>
<path d="M71.3555 54.2731C71.3555 53.9518 71.4689 53.8101 71.7712 53.8101H73.6137V68.9847C73.6137 69.3059 73.5003 69.4477 73.1791 69.4477H71.7807C71.4783 69.4477 71.3649 69.3059 71.3649 68.9847V54.2636L71.3555 54.2731ZM74.7097 61.7186H76.4389C78.5081 61.7186 79.4246 60.9628 79.4246 59.7155V57.7124C79.4246 56.4746 78.5081 55.7093 76.4389 55.7093H74.7097V53.8007H76.4389C80.3978 53.8007 81.6545 55.4542 81.6545 57.3439V60.084C81.6545 61.9738 80.3884 63.6273 76.4389 63.6273H74.7097V61.7186Z" fill="white"/>
<path d="M92.5879 54.2448C92.6824 53.9425 92.843 53.8102 93.1359 53.8102H94.5627C94.865 53.8102 95.0256 53.9519 95.1107 54.2448L99.5705 69.0036C99.665 69.2776 99.5516 69.4383 99.2209 69.4383H97.7752C97.4728 69.4383 97.3406 69.2776 97.265 69.0036L96.1878 65.4415H92.4651L92.9753 63.6462H95.7154L94.4304 59.4605C94.2225 58.6573 93.8068 56.059 93.8068 56.059C93.7596 56.2668 93.4383 58.4684 93.1642 59.4132L90.2919 69.0036C90.2257 69.2776 90.084 69.4383 89.7817 69.4383H88.4494C88.147 69.4383 88.0337 69.2776 88.1281 69.0036L92.5879 54.2448Z" fill="white"/>
<path d="M107.904 54.2731C107.904 53.9518 108.018 53.8101 108.32 53.8101H110.163V68.9847C110.163 69.3059 110.049 69.4477 109.728 69.4477H108.329C108.027 69.4477 107.914 69.3059 107.914 68.9847V54.2636L107.904 54.2731ZM116.455 69.4477C116.153 69.4477 116.087 69.2209 115.973 68.9847L113.394 63.2588H111.259V61.3501H112.988C115.057 61.3501 115.973 60.6132 115.973 59.347V57.7124C115.973 56.4746 115.057 55.7093 112.988 55.7093H111.259V53.8007H112.988C116.947 53.8007 118.203 55.4542 118.203 57.3439V59.7344C118.203 61.1139 117.495 62.38 115.51 62.9564L118.269 68.9847C118.383 69.2587 118.175 69.4477 117.882 69.4477H116.455Z" fill="white"/>
<path d="M130.58 54.2448C130.675 53.9425 130.835 53.8102 131.128 53.8102H132.555C132.857 53.8102 133.018 53.9519 133.103 54.2448L137.563 69.0036C137.657 69.2776 137.544 69.4383 137.213 69.4383H135.767C135.465 69.4383 135.333 69.2776 135.257 69.0036L134.18 65.4415H130.457L130.967 63.6462H133.708L132.423 59.4605C132.215 58.6573 131.799 56.059 131.799 56.059C131.752 56.2668 131.43 58.4684 131.156 59.4132L128.284 69.0036C128.218 69.2776 128.076 69.4383 127.774 69.4383H126.442C126.139 69.4383 126.026 69.2776 126.12 69.0036L130.58 54.2448Z" fill="white"/>
<path d="M145.414 57.1644C145.414 55.3975 146.425 53.8102 149.94 53.6495V55.5582C148.305 55.6999 147.663 56.4274 147.663 57.5329V65.7155C147.663 66.8682 148.305 67.5769 149.94 67.7186V69.6083C146.425 69.4666 145.414 67.8792 145.414 66.0934V57.1739V57.1644ZM151.045 69.6083V67.7186C152.652 67.5769 153.389 66.8871 153.389 65.7438V63.5328H150.649C150.327 63.5328 150.186 63.4195 150.186 63.0982V62.04C150.186 61.7376 150.327 61.6242 150.649 61.6242H155.137C155.439 61.6242 155.571 61.7376 155.571 62.04V66.084C155.571 67.8792 154.494 69.4666 151.045 69.5989V69.6083ZM153.389 58.1754V57.5329C153.389 56.4085 152.68 55.6716 151.045 55.5582V53.6495C154.494 53.8102 155.571 55.3975 155.571 57.1644V58.1754C155.571 58.4778 155.458 58.6101 155.156 58.6101H153.795C153.493 58.6101 153.379 58.4684 153.379 58.1754H153.389Z" fill="white"/>
<path d="M164.822 54.2731C164.822 53.9518 164.936 53.8101 165.238 53.8101H167.081V68.9847C167.081 69.3059 166.967 69.4477 166.646 69.4477H165.247C164.945 69.4477 164.832 69.3059 164.832 68.9847V54.2636L164.822 54.2731ZM173.383 69.4477C173.08 69.4477 173.014 69.2209 172.901 68.9847L170.321 63.2588H168.186V61.3501H169.915C171.984 61.3501 172.901 60.6132 172.901 59.347V57.7124C172.901 56.4746 171.984 55.7093 169.915 55.7093H168.186V53.8007H169.915C173.874 53.8007 175.131 55.4542 175.131 57.3439V59.7344C175.131 61.1139 174.422 62.38 172.438 62.9564L175.197 68.9847C175.31 69.2587 175.102 69.4477 174.81 69.4477H173.383Z" fill="white"/>
<path d="M187.5 54.2448C187.594 53.9425 187.755 53.8102 188.048 53.8102H189.475C189.777 53.8102 189.938 53.9519 190.023 54.2448L194.483 69.0036C194.577 69.2776 194.464 69.4383 194.133 69.4383H192.687C192.385 69.4383 192.253 69.2776 192.177 69.0036L191.1 65.4415H187.377L187.887 63.6462H190.628L189.342 59.4605C189.135 58.6573 188.719 56.059 188.719 56.059C188.672 56.2668 188.35 58.4684 188.076 59.4132L185.204 69.0036C185.138 69.2776 184.996 69.4383 184.694 69.4383H183.361C183.059 69.4383 182.946 69.2776 183.04 69.0036L187.5 54.2448Z" fill="white"/>
<path d="M202.824 68.9847V54.2636C202.824 53.9424 202.938 53.8007 203.24 53.8007H205.082V68.9752C205.082 69.2965 204.969 69.4382 204.648 69.4382H203.249C202.947 69.4382 202.834 69.2965 202.834 68.9752L202.824 68.9847ZM206.179 53.8101H211.678C211.98 53.8101 212.112 53.9235 212.112 54.2447V55.2747C212.112 55.5959 211.971 55.7093 211.678 55.7093H206.179V53.8007V53.8101ZM206.179 62.3139V60.3864H211.262C211.583 60.3864 211.697 60.4998 211.697 60.821V61.8793C211.697 62.1816 211.583 62.3139 211.262 62.3139H206.179Z" fill="white"/>
<path fill-rule="evenodd" clip-rule="evenodd" d="M118.223 97.1378H28.2227V97.1378L28.2228 97.1378L59.4228 97.1379C59.4228 105.094 56.1357 112.725 50.2846 118.351C44.4334 123.977 36.4976 127.138 28.2228 127.138C28.2228 127.138 28.2227 127.138 28.2227 127.138V187.138H118.223V97.1378Z" fill="black"/>
<path fill-rule="evenodd" clip-rule="evenodd" d="M170.03 98.3378C170.03 97.6751 169.493 97.1378 168.83 97.1378H153.23C152.568 97.1378 152.03 97.6751 152.03 98.3378V109.876C152.03 110.945 150.738 111.48 149.982 110.724L143.244 103.986C142.776 103.518 142.016 103.518 141.547 103.986L126.98 118.554C126.511 119.023 126.511 119.782 126.98 120.251L138.01 131.282C138.479 131.75 139.239 131.75 139.708 131.282L149.982 121.007C150.738 120.251 152.03 120.787 152.03 121.856V167.938C152.03 168.601 151.493 169.138 150.83 169.138L149.424 169.138L127.825 169.138C127.162 169.138 126.625 169.675 126.625 170.338V185.938C126.625 186.601 127.162 187.138 127.825 187.138H167.425L170.03 187.138H185.424C186.087 187.138 186.624 186.601 186.624 185.938V170.338C186.624 169.675 186.087 169.138 185.424 169.138H171.23C170.568 169.138 170.03 168.601 170.03 167.938V98.3378Z" fill="black"/>
<path fill-rule="evenodd" clip-rule="evenodd" d="M255.008 126.961C255.009 127.02 255.009 127.079 255.009 127.138C255.009 127.138 255.009 127.138 255.008 127.138V127.138C255.008 127.138 255.008 127.138 255.008 127.138V185.938C255.008 186.601 254.471 187.138 253.808 187.138L196.23 187.138C195.158 187.138 194.624 185.84 195.385 185.086L251.73 129.19C252.491 128.435 251.956 127.138 250.885 127.138H238.209C237.546 127.138 237.015 126.599 236.949 125.94C236.832 124.775 236.545 123.631 236.095 122.546C235.492 121.09 234.608 119.767 233.494 118.653C232.38 117.538 231.057 116.654 229.601 116.051C228.145 115.448 226.585 115.138 225.009 115.138C223.433 115.138 221.872 115.448 220.417 116.051C218.961 116.654 217.638 117.538 216.523 118.653C215.409 119.767 214.525 121.09 213.922 122.546C213.473 123.631 213.186 124.775 213.069 125.94C213.003 126.599 212.471 127.138 211.809 127.138H196.209C195.546 127.138 195.006 126.6 195.033 125.938C195.174 122.408 195.938 118.927 197.292 115.657C198.8 112.018 201.01 108.71 203.796 105.925C206.581 103.139 209.888 100.929 213.528 99.4214C217.168 97.9138 221.069 97.1378 225.009 97.1378C228.948 97.1378 232.849 97.9138 236.489 99.4214C240.129 100.929 243.436 103.139 246.222 105.925C249.008 108.71 251.217 112.018 252.725 115.657C254.08 118.929 254.844 122.412 254.985 125.945C254.985 125.951 254.992 125.954 254.997 125.949V125.949C255.001 125.945 255.008 125.948 255.008 125.954V126.961Z" fill="black"/>
</g>
<defs>
<clipPath id="clip0_324_5061">
<rect width="283.46" height="283.46" fill="white"/>
</clipPath>
</defs>
</svg>
