<svg width="75" height="75" viewBox="0 0 75 75" fill="none" xmlns="http://www.w3.org/2000/svg">
<path fill-rule="evenodd" clip-rule="evenodd" d="M35 1C35 0.447715 35.4477 0 36 0H54C54.5523 0 55 0.447714 55 0.999999L55 12L41.7071 25.2929C41.0772 25.9228 41.5233 27 42.4142 27L55 26.9999V54C55 54.5523 55.4477 55 56 55H74C74.5523 55 75 55.4477 75 56V74C75 74.5523 74.5523 75 74 75H55L41.7071 61.7071C41.0772 61.0772 40 61.5233 40 62.4142L40.0001 75H37.75H35H13H12.75H1C0.447715 75 0 74.5523 0 74V56C0 55.4477 0.447715 55 1 55H12.75H13H34C34.5523 55 35 54.5523 35 54V41C35 40.4477 34.5523 40 34 40H11C10.4477 40 10 39.5523 10 39L10 21C10 20.4477 10.4477 20 11 20L34 20C34.5523 20 35 19.5523 35 19V1Z" fill="#221F1F"/>
</svg>
