<svg width="50" height="75" viewBox="0 0 50 75" fill="none" xmlns="http://www.w3.org/2000/svg">
<path fill-rule="evenodd" clip-rule="evenodd" d="M21.672 61.543C21.672 61.8192 21.4481 62.043 21.172 62.043H15.5C15.2239 62.043 15 62.2669 15 62.543V65.3405C15 65.6166 14.7761 65.8405 14.5 65.8405H0.5C0.223858 65.8405 0 66.0643 0 66.3405V74.5C0 74.7761 0.223858 75 0.5 75H14.5C14.7761 75 15 74.7761 15 74.5V71.5C15 71.2239 15.2239 71 15.5 71H33.5C33.7761 71 34 71.2239 34 71.5V74.5C34 74.7762 34.2239 75 34.5 75H49.4998C49.776 75 49.9998 74.7762 49.9998 74.5V65.3912C49.9998 65.115 49.776 64.8912 49.4998 64.8912H34.5C34.2239 64.8912 34 64.6673 34 64.3912V0.5C34 0.223858 33.7761 0 33.5 0H22.172C21.8959 0 21.672 0.223858 21.672 0.5V6.45949C21.672 7.31013 21.448 7.86836 21 8.13418C20.608 8.4 19.908 8.53291 18.9 8.53291H15.5C15.2239 8.53291 15 8.75677 15 9.03291V11.8304C15 12.1065 14.7761 12.3304 14.5 12.3304H0.5C0.223858 12.3304 0 12.5542 0 12.8304V21.0012C0 21.2774 0.223858 21.5012 0.5 21.5012H14.5C14.7761 21.5012 15 21.2774 15 21.0012V19.5C15 19.2239 15.2239 19 15.5 19H21.172C21.4481 19 21.672 19.2239 21.672 19.5V61.543Z" fill="#221F1F"/>
</svg>
