<svg width="75" height="75" viewBox="0 0 75 75" fill="none" xmlns="http://www.w3.org/2000/svg">
<path fill-rule="evenodd" clip-rule="evenodd" d="M1 0H32C43.0457 0 52 8.9543 52 20H31H24H1C0.447715 20 0 19.5523 0 19V1C0 0.447715 0.447715 0 1 0ZM32 25V62.5057C32 63.6422 29.8326 64.135 29.1624 63.2173C25.5248 58.2361 19.6403 55 13 55H1C0.447715 55 0 55.4477 0 56V74C0 74.5523 0.447715 75 1 75H32H33H43H52H74C74.5523 75 75 74.5523 75 74V56C75 55.4477 74.5523 55 74 55H53C52.4477 55 52 54.5523 52 54V25H32Z" fill="#221F1F"/>
</svg>
