<svg width="75" height="75" viewBox="0 0 75 75" fill="none" xmlns="http://www.w3.org/2000/svg">
<path fill-rule="evenodd" clip-rule="evenodd" d="M33.8733 0C33.6765 0 33.4981 0.115393 33.4173 0.294818L25.956 16.8756C25.7349 17.3669 25 17.2092 25 16.6705V0.5C25 0.223858 24.7761 0 24.5 0H0.5C0.223858 0 0 0.223857 0 0.5V19.5C0 19.7761 0.223858 20 0.5 20H50L67.6705 20C68.2092 20 68.367 20.7349 67.8756 20.956L50.2948 28.8673C50.1154 28.9481 50 29.1265 50 29.3233V74.5C50 74.7761 50.2239 75 50.5 75H74.5C74.7761 75 75 74.7761 75 74.5V0.5C75 0.223858 74.7761 0 74.5 0H33.8733Z" fill="#221F1F"/>
</svg>
