<svg width="50" height="75" viewBox="0 0 50 75" fill="none" xmlns="http://www.w3.org/2000/svg">
<path fill-rule="evenodd" clip-rule="evenodd" d="M36 0C35.4477 0 35 0.447714 35 0.999999V10.2308C35 11.1217 33.9229 11.5679 33.2929 10.9379L28.9912 6.63621C28.6007 6.24569 27.9675 6.24569 27.577 6.63621L0.707106 33.5061C0.316582 33.8966 0.316582 34.5298 0.707106 34.9203L9.89949 44.1127C10.29 44.5032 10.9232 44.5032 11.3137 44.1127L33.2929 22.1335C33.9229 21.5035 35 21.9497 35 22.8406V74C35 74.5523 35.4477 75 36 75H49C49.5523 75 50 74.5523 50 74V1C50 0.447715 49.5523 0 49 0H36Z" fill="#221F1F"/>
</svg>
