<svg width="50" height="75" viewBox="0 0 50 75" fill="none" xmlns="http://www.w3.org/2000/svg">
<path fill-rule="evenodd" clip-rule="evenodd" d="M20 1C20 0.447715 20.4477 0 21 0H29C29.5523 0 30 0.447715 30 1V11V21V64C30 64.5523 30.4477 65 31 65H49C49.5523 65 50 65.4477 50 66V74C50 74.5523 49.5523 75 49 75H30H20H1C0.447715 75 0 74.5523 0 74V66C0 65.4477 0.447715 65 1 65H19C19.5523 65 20 64.5523 20 64V22C20 21.4477 19.5523 21 19 21H6C5.44772 21 5 20.5523 5 20V12C5 11.4477 5.44772 11 6 11H19C19.5523 11 20 10.5523 20 10V1Z" fill="#221F1F"/>
</svg>
