<svg width="50" height="75" viewBox="0 0 50 75" fill="none" xmlns="http://www.w3.org/2000/svg">
<path fill-rule="evenodd" clip-rule="evenodd" d="M36.1715 1C36.1715 0.447715 35.7238 0 35.1715 0H22.1715C21.6192 0 21.1715 0.447714 21.1715 0.999999V10.6151C21.1715 11.506 20.0944 11.9522 19.4644 11.3222L13.8493 5.70711C13.4588 5.31658 12.8256 5.31658 12.4351 5.70711L0.295458 17.8467C-0.0950667 18.2373 -0.0950668 18.8704 0.295457 19.261L9.48785 28.4533C9.87837 28.8439 10.5115 28.8439 10.9021 28.4533L19.4644 19.891C20.0944 19.261 21.1715 19.7072 21.1715 20.5981V59C21.1715 59.5523 20.7238 60 20.1715 60H19H1C0.447715 60 0 60.4477 0 61V74C0 74.5523 0.447713 75 0.999998 75H19H21.1715H34H36.1715H49C49.5523 75 50 74.5523 50 74V61C50 60.4477 49.5523 60 49 60H37.1715C36.6192 60 36.1715 59.5523 36.1715 59V1Z" fill="#221F1F"/>
</svg>
