<svg width="75" height="75" viewBox="0 0 75 75" fill="none" xmlns="http://www.w3.org/2000/svg">
<path fill-rule="evenodd" clip-rule="evenodd" d="M73.9999 -1.52588e-05C74.5522 -1.52588e-05 74.9999 0.4477 74.9999 0.999984L74.9999 5.99999L74.9999 15L74.9999 20.9999C74.9999 20.9999 74.9999 20.9999 74.9999 20.9999L74.9999 20.9999C75 21 74.9999 21 74.9999 21C74.9999 21 74.9999 21 74.9999 21L47.3137 48.6074C46.923 48.997 46.2907 48.9965 45.9005 48.6064L39.8352 42.541C39.4446 42.1505 38.8115 42.1505 38.4209 42.541L22.6691 58.2929C22.0391 58.9229 22.4853 60 23.3762 60L73.9999 60C74.5522 60 74.9999 60.4477 74.9999 61V74C74.9999 74.5523 74.5522 75 73.9999 75H0.999878C0.447593 75 -0.00012207 74.5523 -0.00012207 74V60.0736C-0.00012207 60.033 0.0328456 60 0.0735134 60C0.139116 60 0.171969 59.9207 0.125581 59.8743L0.0736181 59.8223C0.0329744 59.7817 0.0329762 59.7158 0.0736199 59.6751L27.9988 31.7499C28.3894 31.3594 29.0225 31.3594 29.413 31.7499L35.4774 37.8143C35.8679 38.2048 36.5011 38.2048 36.8916 37.8143L57.9988 16.7071C58.6288 16.0771 58.1826 15 57.2917 15L15.9999 15C15.4476 15 14.9999 14.5523 14.9999 14L14.9999 0.999985C14.9999 0.4477 15.4476 -1.52588e-05 15.9999 -1.52588e-05H73.9999Z" fill="#221F1F"/>
</svg>
