<svg width="75" height="75" viewBox="0 0 75 75" fill="none" xmlns="http://www.w3.org/2000/svg">
<path fill-rule="evenodd" clip-rule="evenodd" d="M60 1C60 0.447715 59.5523 0 59 0H11C10.4477 0 10 0.447715 10 1V14C10 14.5523 10.4477 15 11 15H56C56.5523 15 57 15.4477 57 16V29C57 29.5523 56.5523 30 56 30H16C15.4477 30 15 30.4477 15 31V44C15 44.5523 14.5523 45 14 45H1C0.447715 45 0 45.4477 0 46V60V74C0 74.5523 0.447715 75 1 75H74C74.5523 75 75 74.5523 75 74V61C75 60.4477 74.5523 60 74 60H19C18.4477 60 18 59.5523 18 59V46C18 45.4477 18.4477 45 19 45H59C59.5523 45 60 44.5523 60 44V31C60 30.4477 60.4477 30 61 30H74C74.5523 30 75 29.5523 75 29V16C75 15.4477 74.5523 15 74 15H61C60.4477 15 60 14.5523 60 14V1Z" fill="#221F1F"/>
</svg>
