<svg width="75" height="75" viewBox="0 0 75 75" fill="none" xmlns="http://www.w3.org/2000/svg">
<path fill-rule="evenodd" clip-rule="evenodd" d="M0 1C0 0.447715 0.447715 0 1 0H65C70.5229 0 75 4.47715 75 10V16.205C75 18.6097 73.9319 20.8901 72.0846 22.4295L35.1219 53.2318C34.4034 53.8305 34.8268 55 35.762 55H74C74.5523 55 75 55.4477 75 56V74C75 74.5523 74.5523 75 74 75H0.999999C0.447714 75 0 74.5523 0 74V55.4638C0 55.1696 0.129507 54.8904 0.354058 54.7004L39.2796 21.7634C39.9908 21.1617 39.5653 20 38.6337 20H1C0.447715 20 0 19.5523 0 19V1Z" fill="#221F1F"/>
</svg>
