<svg width="75" height="75" viewBox="0 0 75 75" fill="none" xmlns="http://www.w3.org/2000/svg">
<path fill-rule="evenodd" clip-rule="evenodd" d="M18 29C18 29.5523 17.5523 30 17 30H1C0.44772 30 3.82004e-06 29.5523 3.82662e-06 29L3.9578e-06 18C4.07234e-06 8.39442 7.52404 0.546166 17 0.027306C17.5515 -0.00288918 18 0.447715 18 1V5.63354C18 6.68149 19.6082 7.13696 20.2875 6.33897C23.5891 2.46028 28.5072 0 34 0H54.5H55.9715C55.9873 0 56 0.0127477 56 0.0284728C56 0.0433898 56.0115 0.055777 56.0264 0.0568875C59.9954 0.353177 63.8046 1.79999 66.9796 4.23626C70.5598 6.98345 73.1335 10.8352 74.3015 15.1942C75.4695 19.5532 75.1665 24.1758 73.4395 28.345C71.8905 32.0847 69.2734 35.2722 65.9302 37.5177L65.9711 37.5885L32.3493 57H33H59C59.5523 57 60 56.5523 60 56V48C60 47.4477 60.4477 47 61 47H74C74.5523 47 75 47.4477 75 48V57L75 74C75 74.5523 74.5523 75 74 75H31C30.4477 75 30 74.5523 30 74V70.2635C30 69.2735 28.6147 68.8162 27.9256 69.5271C24.6539 72.9023 20.0719 75 15 75H3H1C0.447715 75 0 74.5523 0 74V63.0181C0 58.0512 2.6317 53.4561 6.9158 50.9427L8.43262 50.0529C8.69999 49.8792 8.97339 49.7115 9.25276 49.5502L11.5618 48.2171L13.494 47.0835C13.5495 47.051 13.6062 47.0244 13.6636 47.0036L56.2552 22.4133C56.3189 22.2696 56.4012 22.1324 56.495 22.0083C56.6224 21.8398 56.7287 21.6548 56.8106 21.4571C57.0213 20.9484 57.0583 20.3845 56.9158 19.8527C56.7733 19.3209 56.4593 18.851 56.0225 18.5158C55.6045 18.195 55.0963 18.0149 54.5707 18H19C18.4477 18 18 18.4477 18 19V29Z" fill="#221F1F"/>
</svg>
