<svg width="75" height="75" viewBox="0 0 75 75" fill="none" xmlns="http://www.w3.org/2000/svg">
<path fill-rule="evenodd" clip-rule="evenodd" d="M75 1C75 0.447715 74.5523 0 74 0H10C9.44772 0 9 0.447715 9 1V11C9 11.5523 8.55229 12 8 12H1C0.447715 12 0 12.4477 0 13V26C0 26.5523 0.447715 27 1 27H14C14.5523 27 15 26.5523 15 26V16C15 15.4477 15.4477 15 16 15H50.9187C51.8178 15 52.2601 16.0941 51.6137 16.719L2.305 64.3841C2.11009 64.5725 2.00002 64.8319 2.00002 65.103V74C2.00002 74.5523 2.44774 75 3.00002 75H13.297H15.5858C15.851 75 16.1054 74.8946 16.2929 74.7071L28.2929 62.7071C28.9229 62.0772 30 62.5233 30 63.4142L30 74C30 74.5523 30.4477 75 31 75H41H74C74.5523 75 75 74.5523 75 74V61C75 60.4477 74.5523 60 74 60H30.8832C29.9841 60 29.5417 58.9059 30.1881 58.281L74.9536 15.0077C74.9562 15.0052 74.9592 15.0033 74.9625 15.002C74.9657 15.0007 74.9691 15 74.9726 15C74.9878 15 75 14.9878 75 14.9727V1Z" fill="#221F1F"/>
</svg>
