<svg width="75" height="75" viewBox="0 0 75 75" fill="none" xmlns="http://www.w3.org/2000/svg">
<path fill-rule="evenodd" clip-rule="evenodd" d="M74.9971 68.0329C74.9971 68.309 74.7732 68.5329 74.4971 68.5329H50.4971C50.2209 68.5329 49.9971 68.7568 49.9971 69.0329V74.5C49.9971 74.7761 49.7732 75 49.4971 75H40.4971C40.2209 75 39.9971 74.7761 39.9971 74.5V73.6519C39.9971 73.3757 39.7732 73.1519 39.4971 73.1519H15.4971C15.2209 73.1519 14.9971 72.928 14.9971 72.6519V68.109C14.9971 67.8329 14.7732 67.609 14.4971 67.609H0.49707C0.220928 67.609 -0.00327343 67.3852 0.000242689 67.109C0.0661131 61.9362 1.15777 57.3279 3.27522 53.2841C5.39442 49.1104 8.17588 45.7856 11.6196 43.3096C12.47 42.6982 13.3426 42.1062 14.2374 41.5336C14.5674 41.3225 14.9971 41.5614 14.9971 41.9531V45.7008C14.9971 46.0925 15.4276 46.3329 15.7637 46.1316C18.0527 44.7607 20.4793 43.5101 23.0434 42.3797C27.2156 40.5405 31.4209 39.0549 35.6593 37.9231C36.9275 37.5844 38.163 37.2521 39.3659 36.9261C39.6839 36.8399 39.9971 37.0793 39.9971 37.4088V37.949C39.9971 38.2785 40.3103 38.5179 40.6282 38.4312C42.9751 37.7917 45.193 37.1773 47.2818 36.5879C48.1116 36.337 48.9062 36.0783 49.6656 35.8116C49.8647 35.7417 49.9971 35.5532 49.9971 35.3422V29.5785C49.9971 29.3675 50.1298 29.1794 50.3279 29.1067C52.4963 28.3103 54.3617 27.4457 55.9242 26.513C58.2421 25.0982 59.5004 23.4712 59.6991 21.6319V20.8891C59.6991 18.1302 58.0434 15.9373 54.7322 14.3102C53.5532 13.6934 52.1775 13.1886 50.6051 12.7959C50.2943 12.7183 49.9971 12.9562 49.9971 13.2765V18.4942C49.9971 18.8145 49.7004 19.0522 49.3864 18.9889C46.8769 18.4834 43.9237 18.2307 40.5269 18.2307H40.4971C40.2209 18.2307 39.9971 18.0068 39.9971 17.7307V16.6475C39.9971 16.5012 39.8785 16.3826 39.7322 16.3826C35.8249 16.4533 32.4143 16.8424 29.5004 17.5498C26.6527 18.2572 24.5666 19.1061 23.2421 20.0965C21.9176 21.0868 20.8911 22.0772 20.1626 23.0676C19.4342 24.0579 19.0037 24.9068 18.8712 25.6142L18.8185 26.1209C18.792 26.3757 18.5773 26.5692 18.3212 26.5692H15.4971C15.2209 26.5692 14.9971 26.3454 14.9971 26.0692V21.5264C14.9971 21.2502 14.7732 21.0264 14.4971 21.0264H3.57654C3.3004 21.0264 3.07706 20.8024 3.09285 20.5267C3.10881 20.2481 3.13649 19.9195 3.17588 19.5408C3.30833 18.9041 3.63945 17.843 4.16926 16.3575C4.69906 14.8012 5.39442 13.2803 6.25535 11.7947C7.1825 10.3092 8.57323 8.75287 10.4275 7.12583C11.5861 6.06506 12.861 5.10093 14.2523 4.23347C14.5796 4.02941 14.9971 4.26861 14.9971 4.65427V8.45815C14.9971 8.84382 15.416 9.08558 15.7549 8.90151C16.1241 8.70098 16.5007 8.50652 16.8845 8.31815C19.3348 7.04481 22.5467 5.98371 26.5202 5.13482C30.4938 4.28593 34.8977 3.86148 39.7322 3.86148C39.8786 3.86148 39.9971 3.98034 39.9971 4.12677V5.21145C39.9971 5.48702 40.2202 5.71049 40.4958 5.71284C43.6852 5.74005 46.6618 5.93859 49.4254 6.30847C49.7272 6.34886 49.9971 6.11521 49.9971 5.81072V0.497894C49.9971 0.1934 50.267 -0.0405645 50.5679 0.00590571C56.3846 0.904142 61.2164 2.59504 65.0633 5.0786C71.156 8.96933 74.2024 14.381 74.2024 21.3136V21.5258C74.2024 25.275 73.0765 28.4584 70.8249 31.0758C68.5732 33.6224 65.7256 35.5324 62.2818 36.8058C58.8381 38.0083 54.9309 39.2463 50.56 40.5196C50.4943 40.538 50.4287 40.5563 50.3631 40.5746C50.1468 40.6349 49.9971 40.8319 49.9971 41.0565V46.7636C49.9971 46.9882 49.8473 47.1853 49.6309 47.2452C46.5587 48.0963 43.5546 48.8929 40.6186 49.635C40.3031 49.7148 39.9971 49.476 39.9971 49.1506V48.5844C39.9971 48.2589 39.6911 48.0202 39.3752 48.0989C38.9297 48.2099 38.4858 48.3196 38.0434 48.428C34.0699 49.4184 30.2951 51.0101 26.7189 53.203C23.4347 55.152 20.9325 57.4888 19.2121 60.2133C19.0077 60.5372 19.2465 60.9491 19.6295 60.9491H39.4971C39.7732 60.9491 39.9971 61.173 39.9971 61.4491V62.2972C39.9971 62.5734 40.2209 62.7972 40.4971 62.7972H49.4971C49.7732 62.7972 49.9971 62.5734 49.9971 62.2972V56.8301C49.9971 56.554 50.2209 56.3301 50.4971 56.3301H74.4971C74.7732 56.3301 74.9971 56.554 74.9971 56.8301V68.0329Z" fill="#221F1F"/>
</svg>
