<svg width="50" height="75" viewBox="0 0 50 75" fill="none" xmlns="http://www.w3.org/2000/svg">
<path fill-rule="evenodd" clip-rule="evenodd" d="M0 1C0 0.447715 0.447715 0 1 0H35C35.3303 0 35.6581 0.0106759 35.9831 0.0317014C35.9922 0.0322935 36 0.025034 36 0.0158631C36 0.00710214 36.0071 -9.71001e-07 36.0159 9.31219e-06C37.849 0.00216094 39.6639 0.37715 41.3576 1.10375C43.0561 1.83244 44.5995 2.9005 45.8995 4.24695C47.1995 5.5934 48.2307 7.19187 48.9343 8.95109C49.6379 10.7103 50 12.5958 50 14.5C50 14.583 49.9993 14.6659 49.9979 14.7488C49.9993 14.831 50 14.9133 50 14.9958C50 14.9981 49.9981 15 49.9958 15C49.9935 15 49.9916 15.0018 49.9915 15.0041C49.9334 16.7363 49.5757 18.4451 48.9343 20.0489C48.2307 21.8081 47.1995 23.4066 45.8995 24.753C44.5995 26.0995 43.0561 27.1676 41.3576 27.8963C39.659 28.6249 37.8385 29 36 29L25 29C20.8466 29 16.7865 30.2316 13.333 32.5391C9.8796 34.8466 7.18798 38.1264 5.59854 41.9636C4.0091 45.8009 3.59323 50.0233 4.40352 54.0969C5.21381 58.1705 7.21386 61.9123 10.1508 64.8492C13.0877 67.7861 16.8295 69.7862 20.9031 70.5965C24.9767 71.4068 29.1991 70.9909 33.0364 69.4015C36.8736 67.812 40.1534 65.1204 42.4609 61.667C44.5829 58.4912 45.795 54.8023 45.9762 50.9997C46.0025 50.448 46.4477 50 47 50H48H49C49.5523 50 50 50.4477 50 51V74C50 74.5523 49.5523 75 49 75H25.0068C25.0022 75 24.9975 75 24.9928 75H1C0.447715 75 0 74.5523 0 74V50C2.17242e-05 46.7327 0.640561 43.4808 1.90302 40.4329C3.79521 35.8648 6.99953 31.9603 11.1108 29.2133C15.222 26.4662 20.0555 25 25 25H35C35.5523 25 36 24.5523 36 24V16C36 15.4477 35.5523 15 35 15H1C0.447715 15 0 14.5523 0 14V1Z" fill="#221F1F"/>
</svg>
