<svg width="50" height="75" viewBox="0 0 50 75" fill="none" xmlns="http://www.w3.org/2000/svg">
<path fill-rule="evenodd" clip-rule="evenodd" d="M12.5 1.68302e-05C12.5 2.1572e-05 12.5 2.65042e-05 12.5 2.96939e-05L0.327327 11.0661C0.118853 11.2556 0 11.5243 0 11.806V21.7273C0 22.2796 0.447715 22.7273 1 22.7273H11.5C12.0523 22.7273 12.5 22.2796 12.5 21.7273V12.3636C12.5 11.8113 12.9477 11.3636 13.5 11.3636L37.5 11.3636V17.3732C37.5 17.6549 37.3811 17.9236 37.1726 18.1131L0.224522 51.7023C0.156187 51.7644 0.11716 51.8525 0.117001 51.9448L0.116538 52.2146C0.116483 52.2467 0.0904113 52.2727 0.0582692 52.2727C0.026088 52.2727 0 52.2988 0 52.331V63.6364V74C0 74.5523 0.447715 75 1 75H12.5H49C49.5523 75 50 74.5523 50 74V64.6364C50 64.0841 49.5523 63.6364 49 63.6364H13.5C12.9477 63.6364 12.5 63.1887 12.5 62.6364V57.0999C12.5 56.8175 12.6194 56.5482 12.8287 56.3587L49.994 22.7009C49.9946 22.7003 49.9955 22.7 49.9964 22.7C49.9984 22.7 50 22.6984 50 22.6964V12.3636C50 11.8113 49.5523 11.3636 49 11.3636H37.5V1C37.5 0.447715 37.0523 0 36.5 0H12.5H12.5C12.5 0 12.5 7.53513e-06 12.5 1.68302e-05Z" fill="#221F1F"/>
</svg>
