<svg width="50" height="75" viewBox="0 0 50 75" fill="none" xmlns="http://www.w3.org/2000/svg">
<path fill-rule="evenodd" clip-rule="evenodd" d="M42.6716 38.4044C42.675 38.4075 42.6803 38.4075 42.6838 38.4044C45.5878 35.789 47.7309 32.5697 48.9235 29.0314C50.1169 25.4906 50.3217 21.7395 49.5196 18.1105C48.7176 14.4814 46.9334 11.0864 44.3253 8.22616C41.7171 5.36591 38.3654 3.1287 34.5671 1.71272C30.7688 0.296732 26.6411 -0.254328 22.5496 0.108349C18.4581 0.471027 14.5291 1.73625 11.1107 3.79194C7.69235 5.84763 4.89001 8.63034 2.95197 11.8936C1.18874 14.8625 0.190429 18.1457 0.0246816 21.5004C-0.00257269 22.052 0.447715 22.5 1 22.5L16.5 22.5C17.0523 22.5 17.4917 22.0493 17.582 21.5045C17.7083 20.7421 17.9793 20.0022 18.3856 19.3181C18.967 18.3391 19.8077 17.5043 20.8332 16.8876C21.8587 16.2709 23.0374 15.8913 24.2649 15.7825C25.4923 15.6737 26.7306 15.839 27.8701 16.2638C29.0096 16.6886 30.0151 17.3598 30.7976 18.2179C31.58 19.0759 32.1153 20.0944 32.3559 21.1831C32.5965 22.2719 32.5351 23.3972 32.1771 24.4594C31.8198 25.5193 31.1784 26.4837 30.3093 27.2676C30.3061 27.2705 30.3061 27.2755 30.3093 27.2783V27.2783C30.3124 27.2812 30.3124 27.2862 30.3092 27.2891L0.332706 54.1464C0.120984 54.3361 0 54.6069 0 54.8912V73.7858C0 74.6466 1.01535 75.1052 1.66118 74.536L13.3388 64.2445C13.9846 63.6754 15 64.1339 15 64.9948V74C15 74.5523 15.4477 75 16 75H49C49.5523 75 50 74.5523 50 74V61C50 60.4477 49.5523 60 49 60H20.8022C19.8806 60 19.4496 58.8591 20.141 58.2498L42.6594 38.4043C42.6629 38.4013 42.6681 38.4013 42.6716 38.4044V38.4044Z" fill="#221F1F"/>
</svg>
