<svg width="50" height="75" viewBox="0 0 50 75" fill="none" xmlns="http://www.w3.org/2000/svg">
<path fill-rule="evenodd" clip-rule="evenodd" d="M26.1209 20.1193C25.6341 19.3768 24.3659 19.3768 23.879 20.1193C21.5567 23.6609 17.5515 26 13 26C5.8203 26 0 20.1797 0 13C0 5.8203 5.8203 0 13 0C17.5515 0 21.5567 2.33905 23.879 5.88067C24.3659 6.62316 25.6341 6.62316 26.121 5.88067C28.4433 2.33905 32.4485 0 37 0C44.1797 0 50 5.8203 50 13C50 18.4174 46.6863 23.0609 41.9752 25.014C41.5817 25.1771 41.5814 25.8266 41.9749 25.9896V25.9896C43.5521 26.6429 44.9852 27.6005 46.1924 28.8076C47.3996 30.0148 48.3571 31.4479 49.0104 33.0251C49.536 34.2939 49.8563 35.6359 49.9616 37.001C50.004 37.5516 49.5523 38 49 38H37H26.8873C26.3649 38 25.9346 38.403 25.8575 38.9198C25.7012 39.9665 25.4173 40.9927 25.0104 41.9749C24.3571 43.5521 23.3996 44.9852 22.1924 46.1924C20.9852 47.3996 19.5521 48.3571 17.9749 49.0104V49.0104C17.5814 49.1734 17.5816 49.8228 17.975 49.9859C20.4006 50.9915 22.4558 52.7103 23.8791 54.8807C24.3659 55.6232 25.6341 55.6232 26.121 54.8807C28.4433 51.3391 32.4485 49 37 49C44.1797 49 50 54.8203 50 62C50 69.1797 44.1797 75 37 75C32.4485 75 28.4433 72.661 26.121 69.1193C25.6341 68.3768 24.3659 68.3768 23.879 69.1193C21.5567 72.661 17.5515 75 13 75C5.8203 75 0 69.1797 0 62C0 56.5826 3.31374 51.9391 8.02484 49.986C8.41827 49.8229 8.4186 49.1734 8.02512 49.0104V49.0104C6.44788 48.3571 5.01477 47.3996 3.80761 46.1924C2.60045 44.9852 1.64288 43.5521 0.989568 41.9749C0.46403 40.7061 0.143657 39.3641 0.0384437 37.999C-0.00399861 37.4484 0.447717 37 1 37L13 37H23.1127C23.6351 37 24.0654 36.597 24.1425 36.0802C24.2988 35.0335 24.5827 34.0073 24.9896 33.0251C25.6429 31.4479 26.6004 30.0148 27.8076 28.8076C29.0148 27.6005 30.4479 26.6429 32.0251 25.9896V25.9896C32.4186 25.8266 32.4184 25.1772 32.025 25.0141C29.5994 24.0085 27.5442 22.2897 26.1209 20.1193Z" fill="#221F1F"/>
</svg>
