<svg width="26" height="75" viewBox="0 0 26 75" fill="none" xmlns="http://www.w3.org/2000/svg">
<path fill-rule="evenodd" clip-rule="evenodd" d="M16.5 34.1944C16.5 34.9155 15.9154 35.5 15.1944 35.5C14.1972 35.5 13.3888 34.6916 13.3888 33.6944V6.33339C13.3888 0.814724 6.71654 -1.94903 2.81426 1.95325C1.65258 3.11494 0.99995 4.69052 0.99995 6.33339V26.5C0.99995 27.3284 1.67152 28 2.49995 28C3.32838 28 3.99995 27.3284 3.99995 26.5V6.33339C3.99995 5.48617 4.33651 4.67365 4.93558 4.07457C6.94797 2.06219 10.3888 3.48744 10.3888 6.33339V33.6944C10.3888 36.3485 12.5404 38.5 15.1944 38.5C17.5723 38.5 19.5 36.5723 19.5 34.1944V22.5L19.5001 22.5V10.1944C19.5001 9.25862 20.2587 8.49999 21.1945 8.49999C22.1917 8.49999 23 9.30837 23 10.3055L23.0001 35.9065C23.0001 37.5821 22.4467 39.2107 21.4261 40.5395L2.1579 65.6244C-0.78562 69.4565 1.94639 75 6.77851 75L24.5001 75C25.3285 75 26.0001 74.3284 26.0001 73.5C26.0001 72.6716 25.3285 72 24.5001 72L6.77852 72C4.43445 72 3.10914 69.3109 4.53705 67.4519L23.8052 42.367C25.2285 40.5141 26.0001 38.243 26.0001 35.9065L26 10.3055C26 7.65151 23.8485 5.49999 21.1945 5.49999C18.6018 5.49999 16.5001 7.60177 16.5001 10.1944V22.5L16.5 22.5V34.1944Z" fill="#221F1F"/>
</svg>
