<svg width="271" height="271" viewBox="0 0 271 271" fill="none" xmlns="http://www.w3.org/2000/svg">
<g clip-path="url(#clip0_89_581)">
<path d="M270.73 162.429V109.041V108.879L270.673 108.736L250.241 59.4049L250.184 59.2621L250.07 59.1477L212.322 21.3996L212.207 21.2853L212.055 21.2186L162.734 0.787131L162.581 0.72998H162.429H109.041H108.879L108.736 0.787131L59.4049 21.2186L59.2621 21.2853L59.1477 21.3996L21.3996 59.1477L21.2853 59.2621L21.2186 59.4049L0.787131 108.736L0.72998 108.879V109.041V162.429V162.581L0.787131 162.734L21.2186 212.055L21.2853 212.207L21.3996 212.322L59.1477 250.07L59.2621 250.184L59.4049 250.241L108.736 270.673L108.879 270.73H109.041H162.429H162.581L162.734 270.673L212.055 250.241L212.207 250.184L212.322 250.07L250.07 212.322L250.184 212.207L250.241 212.055L270.673 162.734L270.73 162.581V162.429Z" fill="#5AFF55"/>
<path d="M212.207 44.4409H59.262V73.807H212.207V44.4409Z" fill="#221F1F"/>
<path d="M59.4144 218.827V206.026C59.4144 205.749 59.5097 205.626 59.7764 205.626H61.3766V218.827C61.3766 219.104 61.2814 219.227 60.9956 219.227H59.7764C59.5192 219.227 59.4144 219.104 59.4144 218.827ZM62.3291 205.635H67.1108C67.3679 205.635 67.4918 205.74 67.4918 206.016V206.921C67.4918 207.197 67.3679 207.302 67.1108 207.302H62.3291V205.645V205.635ZM62.3291 213.027V211.35H66.7488C67.025 211.35 67.1298 211.445 67.1298 211.731V212.646C67.1298 212.903 67.0345 213.027 66.7488 213.027H62.3291Z" fill="#221F1F"/>
<path d="M73.8927 206.035C73.8927 205.759 73.988 205.635 74.2547 205.635H75.8549V218.837C75.8549 219.113 75.7596 219.237 75.4739 219.237H74.2547C73.9975 219.237 73.8927 219.113 73.8927 218.837V206.035ZM81.3319 219.227C81.0747 219.227 81.008 219.027 80.9127 218.827L78.6743 213.846H76.8169V212.188H78.3124C80.1126 212.188 80.9127 211.55 80.9127 210.445V209.026C80.9127 207.95 80.1126 207.283 78.3124 207.283H76.8169V205.626H78.3124C81.751 205.626 82.8559 207.064 82.8559 208.702V210.779C82.8559 211.979 82.2367 213.084 80.5127 213.579L82.913 218.818C83.0083 219.056 82.8368 219.218 82.5701 219.218H81.3319V219.227Z" fill="#221F1F"/>
<path d="M89.7711 218.827V206.026C89.7711 205.749 89.8664 205.626 90.1331 205.626H91.7333V219.227H90.1331C89.8759 219.227 89.7711 219.104 89.7711 218.827ZM92.6953 205.635H96.9721C97.2293 205.635 97.3531 205.74 97.3531 206.016V206.921C97.3531 207.197 97.2293 207.302 96.9721 207.302H92.6953V205.645V205.635ZM92.6953 211.331H96.6197C96.8959 211.331 97.0198 211.426 97.0198 211.712V212.569C97.0198 212.827 96.8959 212.95 96.6197 212.95H92.6953V211.331ZM92.6953 217.57H97.1912C97.4674 217.57 97.5722 217.646 97.5722 217.932V218.856C97.5722 219.132 97.477 219.237 97.1912 219.237H92.6953V217.58V217.57Z" fill="#221F1F"/>
<path d="M104.154 206.035C104.154 205.759 104.249 205.635 104.516 205.635H106.116V219.237H104.478C104.24 219.237 104.154 219.094 104.154 218.837V206.035ZM107.078 217.57H108.698C110.498 217.57 111.298 216.913 111.298 215.827V209.026C111.298 207.95 110.498 207.283 108.698 207.283H107.078V205.626H108.698C112.136 205.626 113.26 207.064 113.26 208.702V216.141C113.26 217.78 112.136 219.218 108.698 219.218H107.078V217.561V217.57Z" fill="#221F1F"/>
<path d="M120.318 206.035C120.318 205.759 120.414 205.635 120.68 205.635H122.28V218.837C122.28 219.113 122.185 219.237 121.899 219.237H120.68C120.423 219.237 120.318 219.113 120.318 218.837V206.035ZM127.757 219.227C127.5 219.227 127.434 219.027 127.338 218.827L125.1 213.846H123.243V212.188H124.738C126.538 212.188 127.338 211.55 127.338 210.445V209.026C127.338 207.95 126.538 207.283 124.738 207.283H123.243V205.626H124.738C128.177 205.626 129.281 207.064 129.281 208.702V210.779C129.281 211.979 128.662 213.084 126.938 213.579L129.339 218.818C129.434 219.056 129.262 219.218 128.996 219.218H127.757V219.227Z" fill="#221F1F"/>
<path d="M136.206 206.035C136.206 205.759 136.301 205.635 136.568 205.635H137.787C138.064 205.635 138.168 205.759 138.168 206.035V218.837C138.168 219.113 138.073 219.237 137.787 219.237H136.568C136.311 219.237 136.206 219.113 136.206 218.837V206.035Z" fill="#221F1F"/>
<path d="M145.427 206.007C145.427 205.749 145.522 205.626 145.789 205.626H147.008C147.284 205.626 147.389 205.749 147.389 206.007V218.846C147.389 219.104 147.294 219.227 147.008 219.227H145.789C145.531 219.227 145.427 219.104 145.427 218.846V206.007ZM148.303 211.731L152.047 206.007C152.189 205.807 152.409 205.626 152.666 205.626H153.99C154.247 205.626 154.314 205.807 154.171 206.007L149.97 212.322L154.714 218.846C154.856 219.027 154.79 219.227 154.533 219.227H152.951C152.675 219.227 152.513 219.046 152.37 218.846L148.313 213.189V211.731H148.303Z" fill="#221F1F"/>
<path d="M160.067 215.151C160.067 214.874 160.172 214.751 160.429 214.751H161.61C161.886 214.751 161.972 214.874 161.972 215.151V216.075C161.972 217.094 162.629 217.675 164.096 217.77V219.37C161.038 219.256 160.076 217.875 160.076 216.313V215.151H160.067ZM165.048 217.77C166.468 217.656 167.106 217.075 167.106 216.075V215.094C167.106 214.217 166.182 213.731 165.429 213.455L162.048 212.179C161.143 211.836 160.267 210.864 160.267 209.664V208.559C160.267 207.016 161.067 205.635 164.086 205.502V207.121C162.705 207.216 162.162 207.845 162.162 208.797V209.217C162.162 209.998 162.762 210.398 163.182 210.56L166.839 211.941C168.02 212.379 169.039 213.265 169.039 214.665V216.322C169.039 217.884 168.077 219.266 165.039 219.38V217.78L165.048 217.77ZM167.001 209.436V208.797C167.001 207.797 166.42 207.197 165.039 207.121V205.502C168.02 205.597 168.916 206.997 168.916 208.559V209.436C168.916 209.693 168.792 209.817 168.535 209.817H167.354C167.096 209.817 166.992 209.693 166.992 209.436H167.001Z" fill="#221F1F"/>
<path d="M174.383 206.911V206.007C174.383 205.73 174.507 205.626 174.764 205.626H183.127C183.403 205.626 183.508 205.73 183.508 206.007V206.911C183.508 207.188 183.413 207.292 183.127 207.292H174.764C174.507 207.292 174.383 207.197 174.383 206.911ZM177.965 208.188H179.927V218.827C179.927 219.104 179.85 219.227 179.565 219.227H178.346C178.088 219.227 177.965 219.104 177.965 218.827V208.188Z" fill="#221F1F"/>
<path d="M191.052 206.007C191.128 205.749 191.271 205.626 191.528 205.626H192.767C193.024 205.626 193.167 205.749 193.243 206.007L197.12 218.846C197.196 219.085 197.101 219.227 196.815 219.227H195.557C195.3 219.227 195.176 219.085 195.119 218.846L194.176 215.751H190.938L191.376 214.189H193.757L192.633 210.55C192.452 209.845 192.09 207.588 192.09 207.588C192.052 207.769 191.766 209.683 191.528 210.512L189.033 218.856C188.976 219.094 188.852 219.237 188.595 219.237H187.432C187.175 219.237 187.071 219.094 187.156 218.856L191.033 206.016L191.052 206.007Z" fill="#221F1F"/>
<path d="M203.168 206.035C203.168 205.759 203.273 205.635 203.53 205.635H205.13V219.237H203.492C203.254 219.237 203.168 219.094 203.168 218.837V206.035ZM206.092 217.57H207.712C209.512 217.57 210.312 216.913 210.312 215.827V209.026C210.312 207.95 209.512 207.283 207.712 207.283H206.092V205.626H207.712C211.15 205.626 212.274 207.064 212.274 208.702V216.141C212.274 217.78 211.15 219.218 207.712 219.218H206.092V217.561V217.57Z" fill="#221F1F"/>
<path d="M69.1777 52.423C69.1777 52.1182 69.2825 51.9849 69.5683 51.9849H71.3209V66.444C71.3209 66.7488 71.2066 66.8822 70.9018 66.8822H69.5683C69.2825 66.8822 69.1777 66.7488 69.1777 66.444V52.423ZM72.3782 59.5193H74.0165C75.9882 59.5193 76.8645 58.7953 76.8645 57.6142V55.7092C76.8645 54.5281 75.9882 53.8042 74.0165 53.8042H72.3782V51.9849H74.0165C77.7885 51.9849 78.9886 53.566 78.9886 55.3568V57.9667C78.9886 59.7669 77.7885 61.3386 74.0165 61.3386H72.3782V59.5193Z" fill="white"/>
<path d="M89.3996 52.404C89.4854 52.1182 89.6378 51.9849 89.9235 51.9849H91.2856C91.5714 51.9849 91.7238 52.1182 91.8095 52.404L96.0577 66.4631C96.1434 66.7298 96.0387 66.8822 95.7243 66.8822H94.3432C94.0574 66.8822 93.9241 66.7298 93.8574 66.4631L92.8287 63.0721H89.2758L89.7616 61.3671H92.3715L91.1427 57.3856C90.9427 56.6236 90.5522 54.1471 90.5522 54.1471C90.5046 54.3471 90.1998 56.4426 89.9426 57.3475L87.2089 66.4821C87.1422 66.7488 87.0088 66.9013 86.7231 66.9013H85.4562C85.1705 66.9013 85.0657 66.7488 85.1514 66.4821L89.3996 52.423V52.404Z" fill="white"/>
<path d="M103.992 52.423C103.992 52.1182 104.097 51.9849 104.383 51.9849H106.135V66.444C106.135 66.7488 106.021 66.8822 105.716 66.8822H104.383C104.097 66.8822 103.992 66.7488 103.992 66.444V52.423ZM112.136 66.8822C111.85 66.8822 111.784 66.6631 111.679 66.444L109.221 60.9861H107.183V59.1668H108.821C110.793 59.1668 111.669 58.462 111.669 57.2618V55.7092C111.669 54.5281 110.793 53.8042 108.821 53.8042H107.183V51.9849H108.821C112.593 51.9849 113.794 53.566 113.794 55.3568V57.6333C113.794 58.9478 113.117 60.1479 111.231 60.7004L113.86 66.4345C113.965 66.7012 113.775 66.8727 113.489 66.8727H112.127L112.136 66.8822Z" fill="white"/>
<path d="M125.586 52.404C125.671 52.1182 125.824 51.9849 126.11 51.9849H127.472C127.757 51.9849 127.91 52.1182 127.996 52.404L132.244 66.4631C132.33 66.7298 132.225 66.8822 131.91 66.8822H130.529C130.244 66.8822 130.11 66.7298 130.043 66.4631L129.015 63.0721H125.462L125.948 61.3671H128.558L127.329 57.3856C127.129 56.6236 126.738 54.1471 126.738 54.1471C126.691 54.3471 126.386 56.4426 126.129 57.3475L123.395 66.4821C123.328 66.7488 123.195 66.9013 122.909 66.9013H121.642C121.357 66.9013 121.252 66.7488 121.338 66.4821L125.586 52.423V52.404Z" fill="white"/>
<path d="M139.721 55.1852C139.721 53.4993 140.683 51.9848 144.036 51.8324V53.6517C142.483 53.7851 141.864 54.4804 141.864 55.5377V63.3388C141.864 64.4342 142.474 65.1105 144.036 65.2438V67.0441C140.683 66.9107 139.721 65.4057 139.721 63.6912V55.1948V55.1852ZM145.084 67.0345V65.2343C146.617 65.1009 147.322 64.4437 147.322 63.3483V61.2432H144.712C144.407 61.2432 144.274 61.1385 144.274 60.8241V59.8145C144.274 59.5287 144.407 59.4239 144.712 59.4239H148.979C149.265 59.4239 149.399 59.5382 149.399 59.8145V63.6722C149.399 65.3772 148.37 66.8917 145.084 67.025V67.0345ZM147.322 56.1473V55.5377C147.322 54.4613 146.646 53.766 145.084 53.6517V51.8324C148.37 51.9848 149.399 53.4993 149.399 55.1852V56.1473C149.399 56.433 149.294 56.5664 149.008 56.5664H147.713C147.427 56.5664 147.322 56.433 147.322 56.1473Z" fill="white"/>
<path d="M158.209 52.423C158.209 52.1182 158.314 51.9849 158.6 51.9849H160.353V66.444C160.353 66.7488 160.238 66.8822 159.933 66.8822H158.6C158.314 66.8822 158.209 66.7488 158.209 66.444V52.423ZM166.353 66.8822C166.068 66.8822 166.001 66.6631 165.896 66.444L163.439 60.9861H161.4V59.1668H163.039C165.01 59.1668 165.887 58.462 165.887 57.2618V55.7092C165.887 54.5281 165.01 53.8042 163.039 53.8042H161.4V51.9849H163.039C166.811 51.9849 168.011 53.566 168.011 55.3568V57.6333C168.011 58.9478 167.334 60.1479 165.448 60.7004L168.077 66.4345C168.192 66.7012 167.992 66.8727 167.706 66.8727H166.344L166.353 66.8822Z" fill="white"/>
<path d="M179.812 52.404C179.898 52.1182 180.051 51.9849 180.336 51.9849H181.698C181.984 51.9849 182.137 52.1182 182.222 52.404L186.47 66.4631C186.556 66.7298 186.451 66.8822 186.137 66.8822H184.756C184.47 66.8822 184.337 66.7298 184.27 66.4631L183.241 63.0721H179.698L180.184 61.3671H182.794L181.565 57.3856C181.365 56.6236 180.974 54.1471 180.974 54.1471C180.927 54.3471 180.622 56.4426 180.365 57.3475L177.631 66.4821C177.564 66.7488 177.431 66.9013 177.145 66.9013H175.879C175.593 66.9013 175.488 66.7488 175.574 66.4821L179.822 52.423L179.812 52.404Z" fill="white"/>
<path d="M194.405 66.444V52.423C194.405 52.1182 194.51 51.9849 194.795 51.9849H196.548V66.444C196.548 66.7488 196.434 66.8822 196.129 66.8822H194.795C194.51 66.8822 194.405 66.7488 194.405 66.444ZM197.596 51.9849H202.835C203.12 51.9849 203.254 52.0992 203.254 52.404V53.3851C203.254 53.6899 203.12 53.8042 202.835 53.8042H197.596V51.9849ZM197.596 60.0908V58.2524H202.435C202.739 58.2524 202.854 58.3572 202.854 58.6715V59.6812C202.854 59.9669 202.739 60.1003 202.435 60.1003H197.596V60.0908Z" fill="white"/>
</g>
<defs>
<clipPath id="clip0_89_581">
<rect width="270" height="270" fill="white" transform="translate(0.72998 0.72998)"/>
</clipPath>
</defs>
</svg>
