<svg width="284" height="284" viewBox="0 0 284 284" fill="none" xmlns="http://www.w3.org/2000/svg">
<g clip-path="url(#clip0_89_581)">
<path d="M283.46 169.76V113.71V113.54L283.4 113.39L261.95 61.6L261.89 61.45L261.77 61.33L222.14 21.7L222.02 21.58L221.86 21.51L170.08 0.06L169.92 0H169.76H113.71H113.54L113.39 0.06L61.6 21.51L61.45 21.58L61.33 21.7L21.7 61.33L21.58 61.45L21.51 61.6L0.06 113.39L0 113.54V113.71V169.76V169.92L0.06 170.08L21.51 221.86L21.58 222.02L21.7 222.14L61.33 261.77L61.45 261.89L61.6 261.95L113.39 283.4L113.54 283.46H113.71H169.76H169.92L170.08 283.4L221.86 261.95L222.02 261.89L222.14 261.77L261.77 222.14L261.89 222.02L261.95 221.86L283.4 170.08L283.46 169.92V169.76Z" fill="#5AFF55"/>
<path d="M222.02 45.89H61.45V76.72H222.02V45.89Z" fill="#221F1F"/>
<path d="M61.61 228.97V215.53C61.61 215.24 61.71 215.11 61.99 215.11H63.67V228.97C63.67 229.26 63.57 229.39 63.27 229.39H61.99C61.72 229.39 61.61 229.26 61.61 228.97ZM64.67 215.12H69.69C69.96 215.12 70.09 215.23 70.09 215.52V216.47C70.09 216.76 69.96 216.87 69.69 216.87H64.67V215.13V215.12ZM64.67 222.88V221.12H69.31C69.6 221.12 69.71 221.22 69.71 221.52V222.48C69.71 222.75 69.61 222.88 69.31 222.88H64.67Z" fill="#221F1F"/>
<path d="M76.81 215.54C76.81 215.25 76.91 215.12 77.19 215.12H78.87V228.98C78.87 229.27 78.77 229.4 78.47 229.4H77.19C76.92 229.4 76.81 229.27 76.81 228.98V215.54ZM84.62 229.39C84.35 229.39 84.28 229.18 84.18 228.97L81.83 223.74H79.88V222H81.45C83.34 222 84.18 221.33 84.18 220.17V218.68C84.18 217.55 83.34 216.85 81.45 216.85H79.88V215.11H81.45C85.06 215.11 86.22 216.62 86.22 218.34V220.52C86.22 221.78 85.57 222.94 83.76 223.46L86.28 228.96C86.38 229.21 86.2 229.38 85.92 229.38H84.62V229.39Z" fill="#221F1F"/>
<path d="M93.48 228.97V215.53C93.48 215.24 93.58 215.11 93.86 215.11H95.54V229.39H93.86C93.59 229.39 93.48 229.26 93.48 228.97ZM96.55 215.12H101.04C101.31 215.12 101.44 215.23 101.44 215.52V216.47C101.44 216.76 101.31 216.87 101.04 216.87H96.55V215.13V215.12ZM96.55 221.1H100.67C100.96 221.1 101.09 221.2 101.09 221.5V222.4C101.09 222.67 100.96 222.8 100.67 222.8H96.55V221.1ZM96.55 227.65H101.27C101.56 227.65 101.67 227.73 101.67 228.03V229C101.67 229.29 101.57 229.4 101.27 229.4H96.55V227.66V227.65Z" fill="#221F1F"/>
<path d="M108.58 215.54C108.58 215.25 108.68 215.12 108.96 215.12H110.64V229.4H108.92C108.67 229.4 108.58 229.25 108.58 228.98V215.54ZM111.65 227.65H113.35C115.24 227.65 116.08 226.96 116.08 225.82V218.68C116.08 217.55 115.24 216.85 113.35 216.85H111.65V215.11H113.35C116.96 215.11 118.14 216.62 118.14 218.34V226.15C118.14 227.87 116.96 229.38 113.35 229.38H111.65V227.64V227.65Z" fill="#221F1F"/>
<path d="M125.55 215.54C125.55 215.25 125.65 215.12 125.93 215.12H127.61V228.98C127.61 229.27 127.51 229.4 127.21 229.4H125.93C125.66 229.4 125.55 229.27 125.55 228.98V215.54ZM133.36 229.39C133.09 229.39 133.02 229.18 132.92 228.97L130.57 223.74H128.62V222H130.19C132.08 222 132.92 221.33 132.92 220.17V218.68C132.92 217.55 132.08 216.85 130.19 216.85H128.62V215.11H130.19C133.8 215.11 134.96 216.62 134.96 218.34V220.52C134.96 221.78 134.31 222.94 132.5 223.46L135.02 228.96C135.12 229.21 134.94 229.38 134.66 229.38H133.36V229.39Z" fill="#221F1F"/>
<path d="M142.23 215.54C142.23 215.25 142.33 215.12 142.61 215.12H143.89C144.18 215.12 144.29 215.25 144.29 215.54V228.98C144.29 229.27 144.19 229.4 143.89 229.4H142.61C142.34 229.4 142.23 229.27 142.23 228.98V215.54Z" fill="#221F1F"/>
<path d="M151.91 215.51C151.91 215.24 152.01 215.11 152.29 215.11H153.57C153.86 215.11 153.97 215.24 153.97 215.51V228.99C153.97 229.26 153.87 229.39 153.57 229.39H152.29C152.02 229.39 151.91 229.26 151.91 228.99V215.51ZM154.93 221.52L158.86 215.51C159.01 215.3 159.24 215.11 159.51 215.11H160.9C161.17 215.11 161.24 215.3 161.09 215.51L156.68 222.14L161.66 228.99C161.81 229.18 161.74 229.39 161.47 229.39H159.81C159.52 229.39 159.35 229.2 159.2 228.99L154.94 223.05V221.52H154.93Z" fill="#221F1F"/>
<path d="M167.28 225.11C167.28 224.82 167.39 224.69 167.66 224.69H168.9C169.19 224.69 169.28 224.82 169.28 225.11V226.08C169.28 227.15 169.97 227.76 171.51 227.86V229.54C168.3 229.42 167.29 227.97 167.29 226.33V225.11H167.28ZM172.51 227.86C174 227.74 174.67 227.13 174.67 226.08V225.05C174.67 224.13 173.7 223.62 172.91 223.33L169.36 221.99C168.41 221.63 167.49 220.61 167.49 219.35V218.19C167.49 216.57 168.33 215.12 171.5 214.98V216.68C170.05 216.78 169.48 217.44 169.48 218.44V218.88C169.48 219.7 170.11 220.12 170.55 220.29L174.39 221.74C175.63 222.2 176.7 223.13 176.7 224.6V226.34C176.7 227.98 175.69 229.43 172.5 229.55V227.87L172.51 227.86ZM174.56 219.11V218.44C174.56 217.39 173.95 216.76 172.5 216.68V214.98C175.63 215.08 176.57 216.55 176.57 218.19V219.11C176.57 219.38 176.44 219.51 176.17 219.51H174.93C174.66 219.51 174.55 219.38 174.55 219.11H174.56Z" fill="#221F1F"/>
<path d="M182.31 216.46V215.51C182.31 215.22 182.44 215.11 182.71 215.11H191.49C191.78 215.11 191.89 215.22 191.89 215.51V216.46C191.89 216.75 191.79 216.86 191.49 216.86H182.71C182.44 216.86 182.31 216.76 182.31 216.46ZM186.07 217.8H188.13V228.97C188.13 229.26 188.05 229.39 187.75 229.39H186.47C186.2 229.39 186.07 229.26 186.07 228.97V217.8Z" fill="#221F1F"/>
<path d="M199.81 215.51C199.89 215.24 200.04 215.11 200.31 215.11H201.61C201.88 215.11 202.03 215.24 202.11 215.51L206.18 228.99C206.26 229.24 206.16 229.39 205.86 229.39H204.54C204.27 229.39 204.14 229.24 204.08 228.99L203.09 225.74H199.69L200.15 224.1H202.65L201.47 220.28C201.28 219.54 200.9 217.17 200.9 217.17C200.86 217.36 200.56 219.37 200.31 220.24L197.69 229C197.63 229.25 197.5 229.4 197.23 229.4H196.01C195.74 229.4 195.63 229.25 195.72 229L199.79 215.52L199.81 215.51Z" fill="#221F1F"/>
<path d="M212.53 215.54C212.53 215.25 212.64 215.12 212.91 215.12H214.59V229.4H212.87C212.62 229.4 212.53 229.25 212.53 228.98V215.54ZM215.6 227.65H217.3C219.19 227.65 220.03 226.96 220.03 225.82V218.68C220.03 217.55 219.19 216.85 217.3 216.85H215.6V215.11H217.3C220.91 215.11 222.09 216.62 222.09 218.34V226.15C222.09 227.87 220.91 229.38 217.3 229.38H215.6V227.64V227.65Z" fill="#221F1F"/>
<path d="M71.86 54.2701C71.86 53.9501 71.97 53.8101 72.27 53.8101H74.11V68.9901C74.11 69.3101 73.99 69.4501 73.67 69.4501H72.27C71.97 69.4501 71.86 69.3101 71.86 68.9901V54.2701ZM75.22 61.7201H76.94C79.01 61.7201 79.93 60.9601 79.93 59.7201V57.7201C79.93 56.4801 79.01 55.7201 76.94 55.7201H75.22V53.8101H76.94C80.9 53.8101 82.16 55.4701 82.16 57.3501V60.0901C82.16 61.9801 80.9 63.6301 76.94 63.6301H75.22V61.7201Z" fill="white"/>
<path d="M93.09 54.2501C93.18 53.9501 93.34 53.8101 93.64 53.8101H95.07C95.37 53.8101 95.53 53.9501 95.62 54.2501L100.08 69.0101C100.17 69.2901 100.06 69.4501 99.73 69.4501H98.28C97.98 69.4501 97.84 69.2901 97.77 69.0101L96.69 65.4501H92.96L93.47 63.6601H96.21L94.92 59.4801C94.71 58.6801 94.3 56.0801 94.3 56.0801C94.25 56.2901 93.93 58.4901 93.66 59.4401L90.79 69.0301C90.72 69.3101 90.58 69.4701 90.28 69.4701H88.95C88.65 69.4701 88.54 69.3101 88.63 69.0301L93.09 54.2701V54.2501Z" fill="white"/>
<path d="M108.41 54.2701C108.41 53.9501 108.52 53.8101 108.82 53.8101H110.66V68.9901C110.66 69.3101 110.54 69.4501 110.22 69.4501H108.82C108.52 69.4501 108.41 69.3101 108.41 68.9901V54.2701ZM116.96 69.4501C116.66 69.4501 116.59 69.2201 116.48 68.9901L113.9 63.2601H111.76V61.3501H113.48C115.55 61.3501 116.47 60.6101 116.47 59.3501V57.7201C116.47 56.4801 115.55 55.7201 113.48 55.7201H111.76V53.8101H113.48C117.44 53.8101 118.7 55.4701 118.7 57.3501V59.7401C118.7 61.1201 117.99 62.3801 116.01 62.9601L118.77 68.9801C118.88 69.2601 118.68 69.4401 118.38 69.4401H116.95L116.96 69.4501Z" fill="white"/>
<path d="M131.08 54.2501C131.17 53.9501 131.33 53.8101 131.63 53.8101H133.06C133.36 53.8101 133.52 53.9501 133.61 54.2501L138.07 69.0101C138.16 69.2901 138.05 69.4501 137.72 69.4501H136.27C135.97 69.4501 135.83 69.2901 135.76 69.0101L134.68 65.4501H130.95L131.46 63.6601H134.2L132.91 59.4801C132.7 58.6801 132.29 56.0801 132.29 56.0801C132.24 56.2901 131.92 58.4901 131.65 59.4401L128.78 69.0301C128.71 69.3101 128.57 69.4701 128.27 69.4701H126.94C126.64 69.4701 126.53 69.3101 126.62 69.0301L131.08 54.2701V54.2501Z" fill="white"/>
<path d="M145.92 57.17C145.92 55.4 146.93 53.81 150.45 53.65V55.56C148.82 55.7 148.17 56.43 148.17 57.54V65.73C148.17 66.88 148.81 67.59 150.45 67.73V69.62C146.93 69.48 145.92 67.9 145.92 66.1V57.18V57.17ZM151.55 69.61V67.72C153.16 67.58 153.9 66.89 153.9 65.74V63.53H151.16C150.84 63.53 150.7 63.42 150.7 63.09V62.03C150.7 61.73 150.84 61.62 151.16 61.62H155.64C155.94 61.62 156.08 61.74 156.08 62.03V66.08C156.08 67.87 155 69.46 151.55 69.6V69.61ZM153.9 58.18V57.54C153.9 56.41 153.19 55.68 151.55 55.56V53.65C155 53.81 156.08 55.4 156.08 57.17V58.18C156.08 58.48 155.97 58.62 155.67 58.62H154.31C154.01 58.62 153.9 58.48 153.9 58.18Z" fill="white"/>
<path d="M165.33 54.2701C165.33 53.9501 165.44 53.8101 165.74 53.8101H167.58V68.9901C167.58 69.3101 167.46 69.4501 167.14 69.4501H165.74C165.44 69.4501 165.33 69.3101 165.33 68.9901V54.2701ZM173.88 69.4501C173.58 69.4501 173.51 69.2201 173.4 68.9901L170.82 63.2601H168.68V61.3501H170.4C172.47 61.3501 173.39 60.6101 173.39 59.3501V57.7201C173.39 56.4801 172.47 55.7201 170.4 55.7201H168.68V53.8101H170.4C174.36 53.8101 175.62 55.4701 175.62 57.3501V59.7401C175.62 61.1201 174.91 62.3801 172.93 62.9601L175.69 68.9801C175.81 69.2601 175.6 69.4401 175.3 69.4401H173.87L173.88 69.4501Z" fill="white"/>
<path d="M188.01 54.2501C188.1 53.9501 188.26 53.8101 188.56 53.8101H189.99C190.29 53.8101 190.45 53.9501 190.54 54.2501L195 69.0101C195.09 69.2901 194.98 69.4501 194.65 69.4501H193.2C192.9 69.4501 192.76 69.2901 192.69 69.0101L191.61 65.4501H187.89L188.4 63.6601H191.14L189.85 59.4801C189.64 58.6801 189.23 56.0801 189.23 56.0801C189.18 56.2901 188.86 58.4901 188.59 59.4401L185.72 69.0301C185.65 69.3101 185.51 69.4701 185.21 69.4701H183.88C183.58 69.4701 183.47 69.3101 183.56 69.0301L188.02 54.2701L188.01 54.2501Z" fill="white"/>
<path d="M203.33 68.9901V54.2701C203.33 53.9501 203.44 53.8101 203.74 53.8101H205.58V68.9901C205.58 69.3101 205.46 69.4501 205.14 69.4501H203.74C203.44 69.4501 203.33 69.3101 203.33 68.9901ZM206.68 53.8101H212.18C212.48 53.8101 212.62 53.9301 212.62 54.2501V55.2801C212.62 55.6001 212.48 55.7201 212.18 55.7201H206.68V53.8101ZM206.68 62.3201V60.3901H211.76C212.08 60.3901 212.2 60.5001 212.2 60.8301V61.8901C212.2 62.1901 212.08 62.3301 211.76 62.3301H206.68V62.3201Z" fill="white"/>
</g>
<defs>
<clipPath id="clip0_89_581">
<rect width="283.46" height="283.46" fill="white"/>
</clipPath>
</defs>
</svg>
