<svg width="75" height="75" viewBox="0 0 75 75" fill="none" xmlns="http://www.w3.org/2000/svg">
<path fill-rule="evenodd" clip-rule="evenodd" d="M32 0H1C0.447715 0 0 0.447716 0 1V19C0 19.5523 0.447715 20 1 20H31C31.5523 20 32 20.4477 32 21V54C32 54.5523 31.5523 55 31 55H1C0.447715 55 0 55.4477 0 56V74C0 74.5523 0.447715 75 1 75H13C19.6403 75 25.5248 71.7639 29.1624 66.7827C29.8326 65.865 32 66.3578 32 67.4943V74C32 74.5523 32.4477 75 33 75H43H52H74C74.5523 75 75 74.5523 75 74V56C75 55.4477 74.5523 55 74 55H53C52.4477 55 52 54.5523 52 54V20V19.0126C52 19.0056 51.9944 19 51.9874 19V19C51.9807 19 51.9752 18.9947 51.9748 18.988C51.4478 8.41251 42.7063 0 32 0Z" fill="#221F1F"/>
</svg>
