<svg width="50" height="75" viewBox="0 0 50 75" fill="none" xmlns="http://www.w3.org/2000/svg">
<path fill-rule="evenodd" clip-rule="evenodd" d="M25 1C25 0.447715 25.4477 0 26 0H35H49C49.5523 0 50 0.447715 50 1V15L50 74C50 74.5523 49.5523 75 49 75H36C35.4477 75 35 74.5523 35 74L35 16C35 15.4477 34.5523 15 34 15H27C26.4477 15 26 15.4477 26 16V27.9808C26 28.5331 25.5523 28.9808 25 28.9808H1C0.447715 28.9808 0 28.5331 0 27.9808V14.9808C0 14.4285 0.447716 13.9808 1 13.9808H24C24.5523 13.9808 25 13.5331 25 12.9808V1Z" fill="#221F1F"/>
</svg>
