<svg width="50" height="75" viewBox="0 0 50 75" fill="none" xmlns="http://www.w3.org/2000/svg">
<path fill-rule="evenodd" clip-rule="evenodd" d="M26.1159 5.5392C25.6251 6.26993 24.3749 6.26993 23.8841 5.5392C21.6402 2.19842 17.8269 0 13.5 0H12.5C5.59644 0 0 5.59644 0 12.5C0 19.4036 5.59644 25 12.5 25H13.5C17.8269 25 21.6402 22.8016 23.8841 19.4608C24.3749 18.7301 25.6251 18.73 26.1159 19.4608C27.1942 21.0663 28.6351 22.408 30.3213 23.3686C31.1925 23.865 31.266 25.6168 30.439 26.1839C27.1545 28.4363 25 32.2165 25 36.5V38.5C25 42.8269 27.1984 46.6402 30.5392 48.8841C31.2699 49.3749 31.2699 50.6251 30.5392 51.1159C27.1984 53.3598 25 57.1731 25 61.5V62.5C25 69.4036 30.5964 75 37.5 75C44.4036 75 50 69.4036 50 62.5V61.5C50 57.1731 47.8016 53.3598 44.4608 51.1159C43.7301 50.6251 43.7301 49.3749 44.4608 48.8841C47.8016 46.6402 50 42.8269 50 38.5V36.5C50 32.0296 47.6533 28.1073 44.1246 25.8978C43.2774 25.3674 43.2774 23.6326 44.1246 23.1022C47.6533 20.8927 50 16.9704 50 12.5C50 5.59644 44.4036 0 37.5 0H36.5C32.1731 0 28.3598 2.19842 26.1159 5.5392Z" fill="#221F1F"/>
</svg>
