<svg width="50" height="75" viewBox="0 0 50 75" fill="none" xmlns="http://www.w3.org/2000/svg">
<path fill-rule="evenodd" clip-rule="evenodd" d="M0 0.231788C0 0.103775 0.103775 0 0.231788 0H25C30.5228 0 35 4.47715 35 10V64.5C35 64.7761 35.2239 65 35.5 65H49C49.5523 65 50 65.4477 50 66V74C50 74.5523 49.5523 75 49 75H35H26H25.5C25.2239 75 25 74.7761 25 74.5V74V71.5376C25 71.0069 24.1752 70.7848 23.8458 71.2009C22.0142 73.5152 19.1805 75 16 75H6.5C6.22386 75 6 74.7761 6 74.5V65.5C6 65.2239 6.22386 65 6.5 65H24.5C24.7761 65 25 64.7761 25 64.5V10.5C25 10.2239 24.7761 10 24.5 10H2C1.05719 10 0.585786 10 0.292893 9.70711C0 9.41421 0 8.94281 0 8V0.231788Z" fill="#221F1F"/>
</svg>
