<svg width="50" height="75" viewBox="0 0 50 75" fill="none" xmlns="http://www.w3.org/2000/svg">
<path fill-rule="evenodd" clip-rule="evenodd" d="M19.6778 1.00847e-06L1.40537 18.2724L1.40537 18.2725C0.738705 18.9391 0.405375 19.2724 0.405375 19.6867C0.405375 20.1009 0.738708 20.4342 1.40538 21.1009L5.64802 25.3435C6.31468 26.0102 6.64802 26.3435 7.06223 26.3435C7.47644 26.3435 7.80978 26.0102 8.47644 25.3435L16.5858 17.2341C18.0389 15.7811 18.7654 15.0545 19.3827 15.3102C20 15.5659 20 16.5934 20 18.6483V33.1716C20 33.5803 20 33.7847 20.0762 33.9685C20.1523 34.1522 20.2968 34.2968 20.5858 34.5858L28.5858 42.5858C29.2525 43.2524 29.5858 43.5858 29.5858 44C29.5858 44.4142 29.2525 44.7475 28.5858 45.4142L20.5858 53.4142C20.2968 53.7032 20.1523 53.8477 20.0762 54.0315C20 54.2153 20 54.4196 20 54.8284V63.0001C20 63.9429 20 64.4143 19.7072 64.7072C19.4143 65.0001 18.9429 65.0001 18 65.0001H2.00004C1.05723 65.0001 0.585826 65.0001 0.292933 65.293C3.99053e-05 65.5859 3.99053e-05 66.0573 3.99053e-05 67.0001V73.0001C3.99053e-05 73.9429 3.99053e-05 74.4143 0.292933 74.7072C0.585826 75.0001 1.05723 75.0001 2.00004 75.0001H48C48.9428 75.0001 49.4142 75.0001 49.7071 74.7072C50 74.4143 50 73.9429 50 73.0001V67.0001C50 66.0573 50 65.5859 49.7071 65.293C49.4142 65.0001 48.9428 65.0001 48 65.0001H32C31.0572 65.0001 30.5858 65.0001 30.2929 64.7072C30 64.4143 30 63.9429 30 63.0001V2.00001C30 1.0572 30 0.585791 29.7072 0.292898C29.4143 4.52995e-06 28.9429 4.52995e-06 28 4.52995e-06H25.2682C25.2539 4.52995e-06 25.2398 4.52995e-06 25.226 1.26657e-06L19.6778 1.00847e-06Z" fill="#221F1F"/>
</svg>
