<svg width="50" height="75" viewBox="0 0 50 75" fill="none" xmlns="http://www.w3.org/2000/svg">
<path fill-rule="evenodd" clip-rule="evenodd" d="M24.7318 17.7962C24.9058 17.9284 25.1183 18 25.3369 18L34 18C34.5523 18 35 18.4477 35 19V58.0142C35 58.5665 35.4477 59.0142 36 59.0142H49C49.5523 59.0142 50 59.4619 50 60.0142V73.0142C50 73.5665 49.5523 74.0142 49 74.0142H35.0071C35.0032 74.0142 35 74.011 35 74.0071C35 74.0047 34.9988 74.0025 34.9969 74.0012C34.9958 74.0005 34.9944 74 34.9929 74H34.4142C34.149 74 33.8946 73.8946 33.7071 73.7071L21.7071 61.7071C21.0771 61.0771 20 61.5233 20 62.4142V73C20 73.5523 19.5523 74 19 74H1C0.447715 74 0 73.5523 0 73V60C0 59.4477 0.447715 59 1 59H19C19.5523 59 20 58.5523 20 58V20C20 19.4477 19.5523 19 19 19H1C0.447715 19 0 18.5523 0 18V1.01602C0 0.189038 0.946671 -0.280536 1.60508 0.219857L24.7318 17.7962Z" fill="#221F1F"/>
</svg>
