<svg width="25" height="75" viewBox="0 0 25 75" fill="none" xmlns="http://www.w3.org/2000/svg">
<path fill-rule="evenodd" clip-rule="evenodd" d="M16 70.1945C16 71.1916 15.1916 72 14.1944 72C13.1973 72 12.3889 71.1916 12.3889 70.1945V1.50002C12.3889 0.893318 12.0234 0.346367 11.4629 0.114197C10.9024 -0.117973 10.2572 0.0103607 9.82823 0.439354L0.439341 9.82824C-0.146446 10.414 -0.146446 11.3638 0.439341 11.9496C1.02513 12.5354 1.97487 12.5354 2.56066 11.9496L9.38889 5.12134V70.1945C9.38889 72.8485 11.5404 75 14.1944 75C16.8485 75 19 72.8485 19 70.1945V38.5V38V4.50001C19 3.67158 19.6716 3.00001 20.5 3.00001C21.3284 3.00001 22 3.67158 22 4.50001V73.5C22 74.3284 22.6716 75 23.5 75C24.3284 75 25 74.3284 25 73.5V4.50001C25 2.01473 22.9853 1.15633e-05 20.5 1.15633e-05C18.0147 1.15633e-05 16 2.01473 16 4.50001V38V38.5V70.1945Z" fill="#221F1F"/>
</svg>
