<svg width="25" height="75" viewBox="0 0 25 75" fill="none" xmlns="http://www.w3.org/2000/svg">
<path fill-rule="evenodd" clip-rule="evenodd" d="M0.937122 0.00674151C0.409769 0.0193759 0 0.458501 0 0.986005V9.07023C0 9.66687 0.519532 10.1276 1.11592 10.1105C2.11803 10.0818 3.12348 10.1655 4.1132 10.3624C6.12835 10.7632 8.02428 11.6223 9.65433 12.873C11.2844 14.1238 12.6048 15.7328 13.5136 17.5755C14.2746 19.1187 14.7298 20.7912 14.8577 22.5009C14.8989 23.0517 15.3427 23.5 15.895 23.5L24 23.5C24.5523 23.5 25.0022 23.0521 24.9787 22.5003C24.8399 19.2397 24.0232 16.0398 22.5765 13.1062C20.9822 9.87334 18.6656 7.05055 15.8059 4.8562C12.9461 2.66185 9.61994 1.15477 6.08459 0.451546C4.38475 0.113427 2.65847 -0.0344989 0.937122 0.00674151ZM24 57C24.5523 57 25 56.5523 25 56L25 28C25 27.4477 24.5523 27 24 27H16C15.4477 27 15 27.4477 15 28L15 56C15 56.5523 15.4477 57 16 57H24ZM24 60C24.5523 60 25 60.4477 25 61V74C25 74.5523 24.5523 75 24 75H16C15.4477 75 15 74.5523 15 74V61C15 60.4477 15.4477 60 16 60H24Z" fill="#221F1F"/>
</svg>
