<svg width="25" height="74" viewBox="0 0 25 74" fill="none" xmlns="http://www.w3.org/2000/svg">
<path fill-rule="evenodd" clip-rule="evenodd" d="M0.334912 20.9674C0.12186 21.1571 0 21.4288 0 21.7141V22.4375V38C0 38.5523 0.449109 38.9965 1.0002 39.0328C8.81814 39.5475 15 46.0518 15 54C15 61.9482 8.81814 68.4525 1.0002 68.9672C0.449109 69.0035 0 69.4477 0 70V73C0 73.5523 0.447716 74 1 74H24C24.5523 74 25 73.5523 25 73V22.4375L25 1.22974C25 0.366434 23.9796 -0.0911993 23.3349 0.482976L0.334912 20.9674Z" fill="#221F1F"/>
</svg>
