<svg width="75" height="75" viewBox="0 0 75 75" fill="none" xmlns="http://www.w3.org/2000/svg">
<path fill-rule="evenodd" clip-rule="evenodd" d="M0 1C0 0.447715 0.447714 0 0.999998 0H18.5205C19.0728 0 19.5205 0.447715 19.5205 0.999999V9.57794C19.5205 10.7246 21.7167 11.1947 22.3536 10.2412C26.4778 4.06661 33.5106 0 41.4932 0H52C64.3673 0 74.4547 9.76103 74.9786 21.9993C75.0023 22.5511 74.5523 23 74 23H19.5205H18.4932H1C0.447715 23 0 22.5523 0 22V1ZM5.99996 49C5.44768 49 4.99996 49.4477 4.99996 50L4.99996 68.5469C4.99996 69.4236 6.05533 69.8833 6.71539 69.3063C17.9364 59.4979 32.4029 54 47.4866 54H74C74.5523 54 75 54.4477 75 55V74C75 74.5523 74.5523 75 74 75H4.99996H1C0.447715 75 -4.05212e-05 74.5523 -4.04971e-05 74L-3.93777e-05 48.3916C-3.93776e-05 48.3891 0.00196149 48.3871 0.00442967 48.3871C0.006848 48.3871 0.00882823 48.3852 0.00889801 48.3827C0.335443 37.0703 9.60849 28 21 28H74C74.5523 28 75.0025 28.4485 74.9766 29.0002C74.4546 40.1337 65.2627 49 54 49H5.99996Z" fill="#221F1F"/>
</svg>
