<svg width="75" height="75" viewBox="0 0 75 75" fill="none" xmlns="http://www.w3.org/2000/svg">
<path fill-rule="evenodd" clip-rule="evenodd" d="M51 0H22.5C10.0736 0 1.14941e-05 10.0736 9.86458e-06 22.5L9.66788e-06 24C9.59545e-06 24.5523 0.447725 25 1.00001 25L21.5 25C22.0523 25 22.5 24.5523 22.5 24V21.868C22.5 21.4893 22.286 21.143 21.9472 20.9736L13.5777 16.7889C12.6865 16.3433 13.0036 15 14 15V15L19.9068 15H22.5L51 15L59.7639 15C60.8192 15 61.155 16.4225 60.2111 16.8944L51.5528 21.2236C51.214 21.393 51 21.7393 51 22.118V22.882C51 23.2607 51.214 23.607 51.5528 23.7764L60.2111 28.1056C61.155 28.5775 60.8192 30 59.7639 30L51 30H15C6.71573 30 0 36.7157 0 45V60V74C0 74.5523 0.447716 75 1 75H22.5H74C74.5523 75 75 74.5523 75 74V61C75 60.4477 74.5523 60 74 60L22.5 60L14.2361 60C13.1808 60 12.845 58.5775 13.7889 58.1056L21.9472 54.0264C22.286 53.857 22.5 53.5107 22.5 53.132V51.868C22.5 51.4893 22.286 51.143 21.9472 50.9736L13.7889 46.8944C12.845 46.4225 13.1808 45 14.2361 45L22.5 45H60C68.2843 45 75 38.2843 75 30V20.0374C75 20.0167 74.9833 20 74.9626 20V20C74.9404 20 74.9231 19.9808 74.9253 19.9587C74.9749 19.4751 75 18.9886 75 18.5C75 13.5935 72.4714 8.88795 67.9706 5.41853C63.8287 2.22587 58.3289 0.320643 52.5176 0.0369922C52.5078 0.0365109 52.5 0.0283766 52.5 0.0185038V0.0185038C52.5 0.00828445 52.4917 0 52.4815 0H51Z" fill="#221F1F"/>
</svg>
