<svg width="75" height="75" viewBox="0 0 75 75" fill="none" xmlns="http://www.w3.org/2000/svg">
<path fill-rule="evenodd" clip-rule="evenodd" d="M36.94 39.988C39.6726 39.835 40.6828 38.2474 41.6865 36.6702C42.8676 34.8139 44.0397 32.9719 47.9999 33.5C53.4962 34.2328 53.4996 43.0001 43.9996 43.0001C44.0072 42.996 44.0147 42.992 44.022 42.988L34 42.988L30 42.988L27 42.988C12.4261 42.988 0.549141 54.5348 0.0185032 68.979C0.0183204 68.984 0.0142324 68.988 0.00925308 68.988C0.00414274 68.988 0 68.9921 0 68.9972V69.988V73.988C0 74.5403 0.447716 74.988 1 74.988H33C33.5523 74.988 34 74.5403 34 73.988V69.988V68.988V66.8C34 65.6591 36.1867 65.1729 36.8458 66.1043C40.649 71.4791 46.9147 74.988 54 74.988C65.598 74.988 75 65.586 75 53.988V48.988C75 48.4357 74.5523 47.988 74 47.988H35C34.4477 47.988 34 47.5403 34 46.988V45.988C34 45.4357 34.4477 44.988 35 44.988L42.4996 44.988C77.4996 45.988 78.6549 8.98798 58.5606 8.98798C48.7275 8.98798 43.6602 17.4642 41.2881 25.9572C40.967 27.107 37.9302 27.1972 37.5151 26.0779C31.9745 11.1409 17.768 0.412687 1.00244 0.000300186C0.450326 -0.0132804 0 0.4357 0 0.987984V38.988C0 39.5403 0.447715 39.988 1 39.988H35H36.94Z" fill="#221F1F"/>
</svg>
