<svg width="75" height="75" viewBox="0 0 75 75" fill="none" xmlns="http://www.w3.org/2000/svg">
<path fill-rule="evenodd" clip-rule="evenodd" d="M0 1C0 0.447715 0.447714 0 0.999999 0H49C49.5523 0 50 0.447714 50 0.999999V11.2782C50 12.1691 51.0771 12.6153 51.7071 11.9853L60.5738 3.11864C60.9643 2.72812 61.5975 2.72812 61.988 3.11864L74.7159 15.8466C75.1064 16.2371 75.1064 16.8703 74.7159 17.2608L39.8492 52.1275C39.4587 52.518 38.8256 52.518 38.435 52.1275L25.7071 39.3995C25.3166 39.009 25.3166 38.3758 25.7071 37.9853L41.9853 21.7071C42.6153 21.0771 42.1691 20 41.2782 20H1C0.447715 20 0 19.5523 0 19V1ZM20 38C20 37.4477 19.5523 37 19 37H1C0.447715 37 0 37.4477 0 38V74C0 74.5523 0.447715 75 1 75H16H20H74C74.5523 75 75 74.5523 75 74V56C75 55.4477 74.5523 55 74 55L21 55C20.4477 55 20 54.5523 20 54V38Z" fill="#221F1F"/>
</svg>
