<svg width="75" height="75" viewBox="0 0 75 75" fill="none" xmlns="http://www.w3.org/2000/svg">
<path fill-rule="evenodd" clip-rule="evenodd" d="M75 0.5C75 0.223858 74.7761 0 74.5 0H34.3233C34.1265 0 33.9481 0.115394 33.8673 0.294819L25.956 17.8756C25.7349 18.3669 25 18.2092 25 17.6705V0.5C25 0.223858 24.7761 0 24.5 0H0.5C0.223858 0 0 0.223857 0 0.5V24.5C0 24.7761 0.223857 25 0.499999 25H51.517C52.1342 25 52.2036 25.8994 51.5937 25.9941L0.423331 33.9343C0.179707 33.9721 0 34.1819 0 34.4284V74.5C0 74.7761 0.223857 75 0.5 75H40.6767C40.8735 75 41.0519 74.8846 41.1327 74.7052L49.044 57.1244C49.2651 56.633 50 56.7908 50 57.3295V74.5C50 74.7761 50.2239 75 50.5 75H74.5C74.7761 75 75 74.7761 75 74.5V50.4667C75 50.2039 74.7966 49.986 74.5344 49.9679L23.4296 46.4434C22.8142 46.401 22.8064 45.4994 23.4211 45.4465L74.5429 41.0394C74.8015 41.0171 75 40.8007 75 40.5412V0.5Z" fill="#221F1F"/>
</svg>
