<svg width="75" height="75" viewBox="0 0 75 75" fill="none" xmlns="http://www.w3.org/2000/svg">
<path fill-rule="evenodd" clip-rule="evenodd" d="M10.4305 0C10.1927 0 10 0.192725 10 0.430464V8V8C10 8.04248 9.96557 8.07692 9.92309 8.07692H1C0.447715 8.07692 0 8.52463 0 9.07692V18.6154C0 19.1677 0.447716 19.6154 1 19.6154H10.5385C11.0907 19.6154 11.5385 19.1677 11.5385 18.6154V10.4599C11.5385 10.2059 11.746 10 12 10V10H59.8789C60.7689 10 61.2155 11.0754 60.5872 11.7058L35.5125 36.8702C35.1222 37.2619 34.488 37.2625 34.097 36.8715L28.7755 31.55C28.3843 31.1588 27.7497 31.1596 27.3595 31.5518L3.25524 55.7793C1.32991 57.7145 0.184468 60.2809 0.0204423 62.9904C0.0201152 62.9958 0.01564 63 0.0102279 63V63C0.00457918 63 -4.46491e-07 63.0046 4.2689e-06 63.0102C9.65071e-05 63.1207 0.00168327 63.2309 0.00474306 63.3406C0.00167438 63.446 9.00739e-05 63.5515 1.8254e-06 63.6572C-2.48667e-06 63.6624 0.00418435 63.6666 0.00934858 63.6666V63.6666C0.0143142 63.6666 0.0184158 63.6705 0.0186909 63.6755C0.368977 69.9886 5.59925 75 12 75H20.1972C20.3946 75 20.5877 74.9416 20.7519 74.8321L26.4453 71.0365C27.1099 70.5934 28 71.0698 28 71.8685V74C28 74.5523 28.4477 75 29 75L74 75C74.5523 75 75 74.5523 75 74V64C75 63.4477 74.5523 63 74 63L14.7509 63C13.8612 63 13.4145 61.9254 14.0421 61.2947L32.8073 42.4354C33.1975 42.0432 33.8321 42.0424 34.2233 42.4336L39.5532 47.7636C39.9402 48.1505 40.5663 48.1546 40.9582 47.7727L70.0088 19.4658L71.5462 18.0903C73.7439 16.1239 75 13.3145 75 10.3655C75 10.2442 74.9979 10.1235 74.9938 10.0032C74.9937 10.0015 74.9951 10 74.9969 10V10C74.9986 10 75 9.99859 75 9.99687C74.9983 4.47546 70.5218 0 65 0H64.6345H57H10.4305Z" fill="#221F1F"/>
</svg>
