<svg width="75" height="75" viewBox="0 0 75 75" fill="none" xmlns="http://www.w3.org/2000/svg">
<path fill-rule="evenodd" clip-rule="evenodd" d="M37.2605 0.185579C37.091 0.0648711 36.8882 0 36.6802 0H1C0.447715 0 0 0.447716 0 1V17C0 17.5523 0.447715 18 0.999999 18H37H38L59 18C59.5523 18 60 18.4477 60 19V31C60 31.5523 59.5523 32 59 32L18 32H17.4764C17.2338 32 16.9994 32.0882 16.817 32.2482L0.340565 46.7013C0.124111 46.8911 2.25711e-06 47.1651 2.25711e-06 47.453L2.25711e-06 59C2.25711e-06 59.5523 0.447718 60 1 60H9L15 60C15.5523 60 16 60.4477 16 61V74C16 74.5523 16.4477 75 17 75H74C74.5523 75 75 74.5523 75 74V61C75 60.4477 74.5523 60 74 60H19C18.4477 60 18 59.5523 18 59V48C18 47.4477 18.4477 47 19 47H60H74C74.5523 47 75 46.5523 75 46V32V18C75 17.4477 74.5523 17 74 17H61.1795C60.9714 17 60.7686 16.9351 60.5992 16.8144L37.2605 0.185579Z" fill="#221F1F"/>
</svg>
