<svg width="75" height="75" viewBox="0 0 75 75" fill="none" xmlns="http://www.w3.org/2000/svg">
<path fill-rule="evenodd" clip-rule="evenodd" d="M55 22C55 21.4477 54.5523 21 54 21L12 21C11.4477 21 11 20.5523 11 20L11 1C11 0.447715 11.4477 0 12 0H55H65H74C74.5523 0 75 0.447716 75 1V30V45C75 45.5523 74.5523 46 74 46H55H21C20.4477 46 20 46.4477 20 47V54C20 54.5523 20.4477 55 21 55L74 55C74.5523 55 75 55.4477 75 56V74C75 74.5523 74.5523 75 74 75H25L11.7071 61.7071C11.0772 61.0772 10 61.5233 10 62.4142L10.0001 75H1.00002C0.44773 75 1.52588e-05 74.5523 1.52588e-05 74V63V55V46V43V31C1.52588e-05 30.4477 0.447732 30 1.00002 30L54 30C54.5523 30 55 29.5523 55 29V22ZM62.4142 21C61.5233 21 61.0772 19.9228 61.7071 19.2929L75 6V20.9999L62.4142 21Z" fill="#221F1F"/>
</svg>
