<svg width="50" height="75" viewBox="0 0 50 75" fill="none" xmlns="http://www.w3.org/2000/svg">
<path fill-rule="evenodd" clip-rule="evenodd" d="M42.6777 7.30313C38.2255 2.85093 32.2669 0.251418 25.9999 0.000779492C25.4481 -0.0212906 25 0.428511 25 0.980796V12.9808C25 13.5331 24.5523 13.9808 24 13.9808H1C0.447715 13.9808 0 14.4285 0 14.9808V27.9808C0 28.5331 0.447716 28.9808 1 28.9808H25C25.5523 28.9808 26 28.5331 26 27.9808V16.1364C26 15.5446 26.5129 15.0782 27.0917 15.202C28.9635 15.6024 30.6967 16.5354 32.0711 17.9097C33.9464 19.7851 35 22.3286 35 24.9808C35 27.633 33.9464 30.1765 32.0711 32.0519C30.1957 33.9272 27.6522 34.9808 25 34.9808C21.717 34.9808 18.4661 35.6274 15.4329 36.8838C12.3998 38.1402 9.6438 39.9817 7.32233 42.3031C5.00087 44.6246 3.15938 47.3806 1.90301 50.4137C0.774327 53.1386 0.137731 56.0392 0.0199972 58.981C-0.00208809 59.5329 0.447716 59.9808 1 59.9808H13C13.5523 59.9808 14 60.4285 14 60.9808V73.9808C14 74.5331 14.4477 74.9808 15 74.9808H49C49.5523 74.9808 50 74.5331 50 73.9808V60.9808C50 60.4285 49.5523 59.9808 49 59.9808H16C15.4477 59.9808 14.9948 59.532 15.05 58.9825C15.1474 58.0117 15.3865 57.0586 15.7612 56.154C16.2638 54.9407 17.0003 53.8383 17.9289 52.9097C18.8575 51.9811 19.9599 51.2445 21.1732 50.742C22.3864 50.2395 23.6868 49.9808 25 49.9808C31.6304 49.9808 37.9893 47.3469 42.6777 42.6585C47.3661 37.9701 50 31.6112 50 24.9808C50 18.3504 47.3661 11.9915 42.6777 7.30313Z" fill="#221F1F"/>
</svg>
