<svg width="50" height="75" viewBox="0 0 50 75" fill="none" xmlns="http://www.w3.org/2000/svg">
<path fill-rule="evenodd" clip-rule="evenodd" d="M14.5069 1.78882C17.0498 0.735527 19.7555 0.138134 22.5003 0.0212659C23.0521 -0.00222835 23.5 0.447706 23.5 0.999991V10.515C23.5 11.0673 23.0515 11.5107 22.5011 11.5567C21.2695 11.6597 20.0591 11.9528 18.9135 12.4273C17.4595 13.0296 16.1382 13.9124 15.0253 15.0253C13.9124 16.1382 13.0296 17.4594 12.4273 18.9135C11.9528 20.0591 11.6597 21.2695 11.5567 22.5011C11.5107 23.0515 11.0673 23.5 10.515 23.5L1 23.5C0.447715 23.5 -0.0022209 23.0521 0.0212733 22.5003C0.138141 19.7555 0.735533 17.0498 1.78883 14.5069C2.96982 11.6558 4.70081 9.06516 6.88299 6.88298C9.06517 4.70081 11.6558 2.96981 14.5069 1.78882ZM35.4931 1.78882C32.9502 0.735527 30.2445 0.138134 27.4997 0.0212659C26.9479 -0.00222835 26.5 0.447706 26.5 0.999991V10.515C26.5 11.0673 26.9485 11.5107 27.4989 11.5567C28.7305 11.6597 29.9409 11.9528 31.0865 12.4273C32.5406 13.0296 33.8618 13.9124 34.9747 15.0253C36.0876 16.1382 36.9704 17.4594 37.5727 18.9135C38.0472 20.0591 38.3403 21.2695 38.4433 22.5011C38.4893 23.0515 38.9327 23.5 39.485 23.5L49 23.5C49.5523 23.5 50.0022 23.0521 49.9787 22.5003C49.8619 19.7555 49.2645 17.0498 48.2112 14.5069C47.0302 11.6558 45.2992 9.06516 43.117 6.88298C40.9348 4.70081 38.3442 2.96981 35.4931 1.78882ZM49 26.5C49.5523 26.5 50.0022 26.9479 49.9787 27.4997C49.8619 30.2445 49.2645 32.9502 48.2112 35.4931C47.0302 38.3442 45.2992 40.9348 43.117 43.117C40.9348 45.2992 38.3442 47.0302 35.4931 48.2112C32.9502 49.2645 30.2445 49.8619 27.4997 49.9787C26.9479 50.0022 26.5 49.5523 26.5 49L26.5 39.485C26.5 38.9327 26.9485 38.4893 27.4988 38.4433C28.7305 38.3403 29.9409 38.0472 31.0865 37.5727C32.5405 36.9704 33.8618 36.0876 34.9747 34.9747C36.0876 33.8618 36.9704 32.5405 37.5727 31.0865C38.0472 29.9409 38.3403 28.7305 38.4433 27.4988C38.4893 26.9485 38.9327 26.5 39.485 26.5H49ZM24 66C24 65.4477 23.5523 65 23 65H1C0.447715 65 0 65.4477 0 66V74C0 74.5523 0.447716 75 1 75H23C23.5523 75 24 74.5523 24 74V66ZM27 66C27 65.4477 27.4477 65 28 65H49C49.5523 65 50 65.4477 50 66V74C50 74.5523 49.5523 75 49 75H28C27.4477 75 27 74.5523 27 74V66ZM22.5003 39.0213C19.7556 39.1381 17.0499 39.7355 14.507 40.7888C11.6558 41.9698 9.06522 43.7008 6.88304 45.883C4.70086 48.0652 2.96987 50.6558 1.78888 53.5069C0.802265 55.8888 0.215657 58.4136 0.0492913 60.9795C0.0130189 61.5389 0.466265 62 1.02688 62H10.5664C11.1024 62 11.5387 61.5764 11.6038 61.0443C11.7352 59.9705 12.0116 58.9172 12.4274 57.9135C13.0297 56.4595 13.9125 55.1382 15.0254 54.0253C16.1383 52.9124 17.4595 52.0296 18.9136 51.4273C20.0592 50.9528 21.2695 50.6597 22.5012 50.5567C23.0516 50.5107 23.5001 50.0673 23.5001 49.515V40C23.5001 39.4477 23.0521 38.9978 22.5003 39.0213Z" fill="#221F1F"/>
</svg>
