<svg width="50" height="75" viewBox="0 0 50 75" fill="none" xmlns="http://www.w3.org/2000/svg">
<path fill-rule="evenodd" clip-rule="evenodd" d="M0.606565 20C0.271573 20 7.62939e-06 19.7284 7.62939e-06 19.3934V18.75C7.62939e-06 15.7007 7.63248e-06 13.9855 0.193093 12.6336C0.220677 12.4405 0.252201 12.2548 0.288228 12.0736C1.47183 6.12329 6.12329 1.47182 12.0737 0.288221C13.5226 0 15.2651 0 18.75 0H36H36.6721H49C49.5523 0 50 0.447715 50 1V31C50 31.0026 50 31.0051 50 31.0077C49.9959 39.2884 43.2817 46 35 46H15V61.9198C15 62.4741 15.8989 62.6728 16.1872 62.1994C18.3312 58.6793 21.8798 56.1224 26.0736 55.2882C27.5226 55 29.2651 55 32.75 55H49.6721C49.8532 55 50 55.1468 50 55.3279C50 66.1925 41.1925 75 30.3279 75H15H14.5902H0.5C0.223858 75 0 74.7761 0 74.5V46C0 38.0518 6.18197 31.5474 14 31.0328V31L35 31V11.1348C35 10.6051 34.2308 10.4117 33.9468 10.8589C30.4577 16.3535 24.3186 20 17.3279 20H0.606565Z" fill="#221F1F"/>
</svg>
