<svg width="50" height="75" viewBox="0 0 50 75" fill="none" xmlns="http://www.w3.org/2000/svg">
<path fill-rule="evenodd" clip-rule="evenodd" d="M34.5231 1.6994C34.1262 1.55196 33.682 1.68402 33.4191 2.01592L25.5095 12L25.5095 0.00471018C25.5095 0.00468783 25.5095 0.0046696 25.5095 0.0046692C25.5095 0.00466878 25.5095 0.00468727 25.5095 0.00471022L25.5095 12L17.3772 1.73478C17.1215 1.41199 16.6934 1.27727 16.3029 1.40793C14.9922 1.84642 13.7198 2.38489 12.5 3.01986C8.69952 4.99822 5.54357 7.8437 3.34936 11.2703C1.34026 14.4079 0.202292 17.9314 0.0245926 21.541C-0.00256327 22.0926 0.447716 22.5406 1 22.5406L12.3 22.5406C12.8523 22.5406 13.2946 22.0917 13.3525 21.5424C13.5109 20.0394 14.0259 18.5804 14.8675 17.2661C15.8944 15.6625 17.3714 14.3308 19.15 13.4049C20.9286 12.479 22.9462 11.9916 25 11.9916C27.0538 11.9916 29.0714 12.479 30.85 13.4049C32.6286 14.3308 34.1056 15.6625 35.1325 17.2661C36.1594 18.8698 36.7 20.6889 36.7 22.5406C36.7 24.3924 36.1594 26.2115 35.1325 27.8151C34.4661 28.8558 20.5711 39.3615 10.442 47.0199L10.4418 47.0201C5.58131 50.6951 1.58797 53.7143 0.339656 54.7175C0.118922 54.8949 0 55.1616 0 55.4448V74C0 74.5523 0.447715 75 1 75H13.3093H15.5193C15.8248 75 16.1135 74.8604 16.3031 74.621L25.5095 63L25.5095 75C25.5095 75 25.5095 75 25.5095 75C25.5095 75 25.5095 75 25.5095 75L25.5095 63L34.7159 74.621C34.9055 74.8604 35.1942 75 35.4997 75H48.9099C49.4621 75 49.9099 74.5523 49.9099 74V64C49.9099 63.4477 49.4621 63 48.9099 63L14.3093 63C13.757 63 13.3093 62.5523 13.3093 62V61.6866C13.3093 61.3717 13.4512 61.0801 13.7029 60.891C24.8864 52.4879 44.9808 36.4187 46.6506 33.8109C48.8448 30.3843 50 26.4973 50 22.5406C50 18.5839 48.8448 14.6969 46.6506 11.2703C44.4564 7.8437 41.3005 4.99822 37.5 3.01986C36.5381 2.51913 35.5434 2.07841 34.5231 1.6994Z" fill="#221F1F"/>
</svg>
