<svg width="50" height="75" viewBox="0 0 50 75" fill="none" xmlns="http://www.w3.org/2000/svg">
<path fill-rule="evenodd" clip-rule="evenodd" d="M38.8892 41.2825C34.7783 43.7591 29.9452 45.0811 25.001 45.0813C25.0005 45.0813 25 45.0818 25 45.0823V45.0823C25 45.0829 24.9995 45.0834 24.999 45.0834C22.8982 45.0835 20.818 45.4566 18.8771 46.1815C16.9359 46.9064 15.172 47.9691 13.6863 49.3086C12.2006 50.6482 11.022 52.2385 10.2179 53.9888C9.41386 55.739 9.00001 57.6149 9.00001 59.5094L9.00001 64C9.00001 64.5523 9.44772 65 10 65H49C49.5523 65 50 65.4477 50 66V74C50 74.5523 49.5523 75 49 75H9H1C0.447715 75 0 74.5523 0 74V65V59.0032C0 59.0014 0.00144998 59 0.00323861 59V59C0.00499563 59 0.00643217 58.9986 0.00647647 58.9968C0.0767355 56.2114 0.719215 53.4603 1.90303 50.8834C3.15939 48.1487 5.00088 45.6638 7.32235 43.5707C9.64381 41.4776 12.3998 39.8173 15.4329 38.6845C18.4657 37.5519 21.7163 36.9688 24.999 36.9687C24.9995 36.9687 25 36.9683 25 36.9677V36.9677C25 36.9671 25.0005 36.9667 25.001 36.9667C28.1652 36.9665 31.2582 36.1204 33.8891 34.5354C36.5203 32.9503 38.5711 30.6973 39.7821 28.0612C40.9931 25.4252 41.3099 22.5246 40.6926 19.7263C40.0752 16.9279 38.5513 14.3574 36.3137 12.3399C34.0761 10.3224 31.2251 8.94846 28.1214 8.39183C25.0177 7.8352 21.8007 8.12088 18.8771 9.21276C15.9534 10.3046 13.4546 12.1536 11.6965 14.526C10.1442 16.6205 9.23099 19.04 9.0384 21.5416C8.99601 22.0922 8.55228 22.5406 8 22.5406L1 22.5406C0.447715 22.5406 -0.00256312 22.0926 0.0245908 21.541C0.226788 17.4335 1.67195 13.4469 4.21326 10.0177C6.9603 6.31095 10.8648 3.42186 15.4329 1.71581C20.0011 0.00976609 25.0277 -0.436613 29.8773 0.433123C34.7268 1.30286 39.1814 3.44965 42.6777 6.60201C46.174 9.75438 48.555 13.7707 49.5196 18.1432C50.4842 22.5156 49.9892 27.0478 48.097 31.1666C46.2048 35.2853 43.0005 38.8057 38.8892 41.2825Z" fill="#221F1F"/>
</svg>
